<svg width="781" height="484" viewBox="0 0 781 484" fill="none" xmlns="http://www.w3.org/2000/svg">
<g clip-path="url(#clip0_1401_19032)">
<path fill-rule="evenodd" clip-rule="evenodd" d="M734 466.847L734.5 466.558V466L734.983 466.279L779.5 440.577V440L780 440.289L780.5 440V440.577L825.017 466.279L825.5 466V466.558L826 466.847L825.983 466.856L870.149 492.356L870.5 492.153V492.558L871 492.847L870.851 492.933L915.017 518.432L915.5 518.153V518.711L916 519L915.983 519.01L961 545L915.983 570.99L916 571L915.5 571.289V571.847L915.017 571.568L870.5 597.269V597.847L870 597.558L869.5 597.847V597.713L825.983 622.837L826 622.847L825.5 623.135V623.694L825.017 623.415L780.5 649.116V649.694L780 649.405L779.5 649.694V649.116L734.983 623.415L734.5 623.694V623.135L734 622.847L734.017 622.837L690.5 597.713V597.847L690 597.558L689.5 597.847V597.27L644.983 571.568L644.5 571.847V571.289L644 571L644.017 570.99L599 545L644.017 519.01L644 519L644.5 518.711V518.153L644.983 518.432L689.149 492.933L689 492.847L689.5 492.558V492.153L689.851 492.356L734.017 466.856L734 466.847ZM734.5 571.866L691.116 596.914L734.5 621.962V571.866ZM690.5 595.981V545.885L733.884 570.933L690.5 595.981ZM734.5 570.115L691 545L734.5 519.885V570.115ZM735.5 569.981V519.885L778.884 544.933L735.5 569.981ZM781.116 544.933L824.5 519.885V569.981L781.116 544.933ZM825.5 519.885L869 545L825.5 570.115V519.885ZM826.116 570.933L869.5 545.885V595.981L826.116 570.933ZM868.884 596.914L825.5 621.962V571.866L868.884 596.914ZM824.5 621.962L781 596.847L824.5 571.732V621.962ZM823.884 570.914L780.5 595.962V545.866L823.884 570.914ZM779.5 545.866V595.962L736.116 570.914L779.5 545.866ZM735.5 571.732L779 596.847L735.5 621.962V571.732ZM779.5 543.962L736 518.847L779.5 493.732V543.962ZM780.5 493.732L824 518.847L780.5 543.962V493.732ZM779.5 491.962L736 466.847L779.5 441.732V491.962ZM780.5 441.732L824 466.847L780.5 491.962V441.732ZM825.5 467.732L869 492.847L825.5 517.962V467.732ZM824.5 517.962L781 492.847L824.5 467.732V517.962ZM735.5 467.732L779 492.847L735.5 517.962V467.732ZM734.5 517.962L691 492.847L734.5 467.732V517.962ZM914 571L870.5 545.885V596.115L914 571ZM826 519L869.5 544.115V493.885L826 519ZM914 519L870.5 493.885V544.115L914 519ZM959 545L915.5 519.885V570.115L959 545ZM871 545L914.5 570.115V519.885L871 545ZM646 571L689.5 596.115V545.885L646 571ZM646 519L689.5 544.115V493.885L646 519ZM734 519L690.5 493.885V544.115L734 519ZM689 545L645.5 519.885V570.115L689 545ZM601 545L644.5 570.115V519.885L601 545ZM736 622.847L779.5 647.962V597.732L736 622.847ZM824 622.847L780.5 597.732V647.962L824 622.847Z" fill="url(#paint0_linear_1401_19032)"/>
<path fill-rule="evenodd" clip-rule="evenodd" d="M374 466.847L374.5 466.558V466L374.983 466.279L419.5 440.577V440L420 440.289L420.5 440V440.577L465.017 466.279L465.5 466V466.558L466 466.847L465.983 466.856L510.149 492.356L510.5 492.153V492.558L511 492.847L510.851 492.933L555.017 518.432L555.5 518.153V518.711L556 519L555.983 519.01L601 545L555.983 570.99L556 571L555.5 571.289V571.847L555.017 571.568L510.5 597.269V597.847L510 597.558L509.5 597.847V597.713L465.983 622.837L466 622.847L465.5 623.135V623.694L465.017 623.415L420.5 649.116V649.694L420 649.405L419.5 649.694V649.116L374.983 623.415L374.5 623.694V623.135L374 622.847L374.017 622.837L330.5 597.713V597.847L330 597.558L329.5 597.847V597.27L284.983 571.568L284.5 571.847V571.289L284 571L284.017 570.99L239 545L284.017 519.01L284 519L284.5 518.711V518.153L284.983 518.432L329.149 492.933L329 492.847L329.5 492.558V492.153L329.851 492.356L374.017 466.856L374 466.847ZM374.5 571.866L331.116 596.914L374.5 621.962V571.866ZM330.5 595.981V545.885L373.884 570.933L330.5 595.981ZM374.5 570.115L331 545L374.5 519.885V570.115ZM375.5 569.981V519.885L418.884 544.933L375.5 569.981ZM421.116 544.933L464.5 519.885V569.981L421.116 544.933ZM465.5 519.885L509 545L465.5 570.115V519.885ZM466.116 570.933L509.5 545.885V595.981L466.116 570.933ZM508.884 596.914L465.5 621.962V571.866L508.884 596.914ZM464.5 621.962L421 596.847L464.5 571.732V621.962ZM463.884 570.914L420.5 595.962V545.866L463.884 570.914ZM419.5 545.866V595.962L376.116 570.914L419.5 545.866ZM375.5 571.732L419 596.847L375.5 621.962V571.732ZM419.5 543.962L376 518.847L419.5 493.732V543.962ZM420.5 493.732L464 518.847L420.5 543.962V493.732ZM419.5 491.962L376 466.847L419.5 441.732V491.962ZM420.5 441.732L464 466.847L420.5 491.962V441.732ZM465.5 467.732L509 492.847L465.5 517.962V467.732ZM464.5 517.962L421 492.847L464.5 467.732V517.962ZM375.5 467.732L419 492.847L375.5 517.962V467.732ZM374.5 517.962L331 492.847L374.5 467.732V517.962ZM554 571L510.5 545.885V596.115L554 571ZM466 519L509.5 544.115V493.885L466 519ZM554 519L510.5 493.885V544.115L554 519ZM599 545L555.5 519.885V570.115L599 545ZM511 545L554.5 570.115V519.885L511 545ZM286 571L329.5 596.115V545.885L286 571ZM286 519L329.5 544.115V493.885L286 519ZM374 519L330.5 493.885V544.115L374 519ZM329 545L285.5 519.885V570.115L329 545ZM241 545L284.5 570.115V519.885L241 545ZM376 622.847L419.5 647.962V597.732L376 622.847ZM464 622.847L420.5 597.732V647.962L464 622.847Z" fill="url(#paint1_linear_1401_19032)"/>
<path fill-rule="evenodd" clip-rule="evenodd" d="M14 466.847L14.5 466.558V466L14.9834 466.279L59.5 440.577V440L60 440.289L60.5 440V440.577L105.017 466.279L105.5 466V466.558L106 466.847L105.983 466.856L150.149 492.356L150.5 492.153V492.558L151 492.847L150.851 492.933L195.017 518.432L195.5 518.153V518.711L196 519L195.983 519.01L241 545L195.983 570.99L196 571L195.5 571.289V571.847L195.017 571.568L150.5 597.269V597.847L150 597.558L149.5 597.847V597.713L105.983 622.837L106 622.847L105.5 623.135V623.694L105.017 623.415L60.5 649.116V649.694L60 649.405L59.5 649.694V649.116L14.9834 623.415L14.5 623.694V623.135L14 622.847L14.0166 622.837L-29.5 597.713V597.847L-30 597.558L-30.5 597.847V597.27L-75.0166 571.568L-75.5 571.847V571.289L-76 571L-75.9834 570.99L-121 545L-75.9834 519.01L-76 519L-75.5 518.711V518.153L-75.0166 518.432L-30.8506 492.933L-31 492.847L-30.5 492.558V492.153L-30.1494 492.356L14.0166 466.856L14 466.847ZM14.5 571.866L-28.8838 596.914L14.5 621.962V571.866ZM-29.5 595.981V545.885L13.8838 570.933L-29.5 595.981ZM14.5 570.115L-29 545L14.5 519.885V570.115ZM15.5 569.981V519.885L58.884 544.933L15.5 569.981ZM61.116 544.933L104.5 519.885V569.981L61.116 544.933ZM105.5 519.885L149 545L105.5 570.115V519.885ZM106.116 570.933L149.5 545.885V595.981L106.116 570.933ZM148.884 596.914L105.5 621.962V571.866L148.884 596.914ZM104.5 621.962L61 596.847L104.5 571.732V621.962ZM103.884 570.914L60.5 595.962V545.866L103.884 570.914ZM59.5 545.866V595.962L16.1162 570.914L59.5 545.866ZM15.5 571.732L59 596.847L15.5 621.962V571.732ZM59.5 543.962L16 518.847L59.5 493.732V543.962ZM60.5 493.732L104 518.847L60.5 543.962V493.732ZM59.5 491.962L16 466.847L59.5 441.732V491.962ZM60.5 441.732L104 466.847L60.5 491.962V441.732ZM105.5 467.732L149 492.847L105.5 517.962V467.732ZM104.5 517.962L61 492.847L104.5 467.732V517.962ZM15.5 467.732L59 492.847L15.5 517.962V467.732ZM14.5 517.962L-29 492.847L14.5 467.732V517.962ZM194 571L150.5 545.885V596.115L194 571ZM106 519L149.5 544.115V493.885L106 519ZM194 519L150.5 493.885V544.115L194 519ZM239 545L195.5 519.885V570.115L239 545ZM151 545L194.5 570.115V519.885L151 545ZM-74 571L-30.5 596.115V545.885L-74 571ZM-74 519L-30.5 544.115V493.885L-74 519ZM14 519L-29.5 493.885V544.115L14 519ZM-31 545L-74.5 519.885V570.115L-31 545ZM-119 545L-75.5 570.115V519.885L-119 545ZM16 622.847L59.5 647.962V597.732L16 622.847ZM104 622.847L60.5 597.732V647.962L104 622.847Z" fill="url(#paint2_linear_1401_19032)"/>
<path fill-rule="evenodd" clip-rule="evenodd" d="M734 258.847L734.5 258.558V258L734.983 258.279L779.5 232.577V232L780 232.289L780.5 232V232.577L825.017 258.279L825.5 258V258.558L826 258.847L825.983 258.856L870.149 284.356L870.5 284.153V284.558L871 284.847L870.851 284.933L915.017 310.432L915.5 310.153V310.711L916 311L915.983 311.01L961 337L915.983 362.99L916 363L915.5 363.289V363.847L915.017 363.568L870.5 389.269V389.847L870 389.558L869.5 389.847V389.713L825.983 414.837L826 414.847L825.5 415.135V415.694L825.017 415.415L780.5 441.116V441.694L780 441.405L779.5 441.694V441.116L734.983 415.415L734.5 415.694V415.135L734 414.847L734.017 414.837L690.5 389.713V389.847L690 389.558L689.5 389.847V389.27L644.983 363.568L644.5 363.847V363.289L644 363L644.017 362.99L599 337L644.017 311.01L644 311L644.5 310.711V310.153L644.983 310.432L689.149 284.933L689 284.847L689.5 284.558V284.153L689.851 284.356L734.017 258.856L734 258.847ZM734.5 363.866L691.116 388.914L734.5 413.962V363.866ZM690.5 387.981V337.885L733.884 362.933L690.5 387.981ZM734.5 362.115L691 337L734.5 311.885V362.115ZM735.5 361.981V311.885L778.884 336.933L735.5 361.981ZM781.116 336.933L824.5 311.885V361.981L781.116 336.933ZM825.5 311.885L869 337L825.5 362.115V311.885ZM826.116 362.933L869.5 337.885V387.981L826.116 362.933ZM868.884 388.914L825.5 413.962V363.866L868.884 388.914ZM824.5 413.962L781 388.847L824.5 363.732V413.962ZM823.884 362.914L780.5 387.962V337.866L823.884 362.914ZM779.5 337.866V387.962L736.116 362.914L779.5 337.866ZM735.5 363.732L779 388.847L735.5 413.962V363.732ZM779.5 335.962L736 310.847L779.5 285.732V335.962ZM780.5 285.732L824 310.847L780.5 335.962V285.732ZM779.5 283.962L736 258.847L779.5 233.732V283.962ZM780.5 233.732L824 258.847L780.5 283.962V233.732ZM825.5 259.732L869 284.847L825.5 309.962V259.732ZM824.5 309.962L781 284.847L824.5 259.732V309.962ZM735.5 259.732L779 284.847L735.5 309.962V259.732ZM734.5 309.962L691 284.847L734.5 259.732V309.962ZM914 363L870.5 337.885V388.115L914 363ZM826 311L869.5 336.115V285.885L826 311ZM914 311L870.5 285.885V336.115L914 311ZM959 337L915.5 311.885V362.115L959 337ZM871 337L914.5 362.115V311.885L871 337ZM646 363L689.5 388.115V337.885L646 363ZM646 311L689.5 336.115V285.885L646 311ZM734 311L690.5 285.885V336.115L734 311ZM689 337L645.5 311.885V362.115L689 337ZM601 337L644.5 362.115V311.885L601 337ZM736 414.847L779.5 439.962V389.732L736 414.847ZM824 414.847L780.5 389.732V439.962L824 414.847Z" fill="url(#paint3_linear_1401_19032)"/>
<path fill-rule="evenodd" clip-rule="evenodd" d="M914 154.847L914.5 154.558V154L914.983 154.279L959.5 128.577V128L960 128.289L960.5 128V128.577L1005.02 154.279L1005.5 154V154.558L1006 154.847L1005.98 154.856L1050.15 180.356L1050.5 180.153V180.558L1051 180.847L1050.85 180.933L1095.02 206.432L1095.5 206.153V206.711L1096 207L1095.98 207.01L1141 233L1095.98 258.99L1096 259L1095.5 259.289V259.847L1095.02 259.568L1050.5 285.269V285.847L1050 285.558L1049.5 285.847V285.713L1005.98 310.837L1006 310.847L1005.5 311.135V311.694L1005.02 311.415L960.5 337.116V337.694L960 337.405L959.5 337.694V337.116L914.983 311.415L914.5 311.694V311.135L914 310.847L914.017 310.837L870.5 285.713V285.847L870 285.558L869.5 285.847V285.27L824.983 259.568L824.5 259.847V259.289L824 259L824.017 258.99L779 233L824.017 207.01L824 207L824.5 206.711V206.153L824.983 206.432L869.149 180.933L869 180.847L869.5 180.558V180.153L869.851 180.356L914.017 154.856L914 154.847ZM914.5 259.866L871.116 284.914L914.5 309.962V259.866ZM870.5 283.981V233.885L913.884 258.933L870.5 283.981ZM914.5 258.115L871 233L914.5 207.885V258.115ZM915.5 257.981V207.885L958.884 232.933L915.5 257.981ZM961.116 232.933L1004.5 207.885V257.981L961.116 232.933ZM1005.5 207.885L1049 233L1005.5 258.115V207.885ZM1006.12 258.933L1049.5 233.885V283.981L1006.12 258.933ZM1048.88 284.914L1005.5 309.962V259.866L1048.88 284.914ZM1004.5 309.962L961 284.847L1004.5 259.732V309.962ZM1003.88 258.914L960.5 283.962V233.866L1003.88 258.914ZM959.5 233.866V283.962L916.116 258.914L959.5 233.866ZM915.5 259.732L959 284.847L915.5 309.962V259.732ZM959.5 231.962L916 206.847L959.5 181.732V231.962ZM960.5 181.732L1004 206.847L960.5 231.962V181.732ZM959.5 179.962L916 154.847L959.5 129.732V179.962ZM960.5 129.732L1004 154.847L960.5 179.962V129.732ZM1005.5 155.732L1049 180.847L1005.5 205.962V155.732ZM1004.5 205.962L961 180.847L1004.5 155.732V205.962ZM915.5 155.732L959 180.847L915.5 205.962V155.732ZM914.5 205.962L871 180.847L914.5 155.732V205.962ZM1094 259L1050.5 233.885V284.115L1094 259ZM1006 207L1049.5 232.115V181.885L1006 207ZM1094 207L1050.5 181.885V232.115L1094 207ZM1139 233L1095.5 207.885V258.115L1139 233ZM1051 233L1094.5 258.115V207.885L1051 233ZM826 259L869.5 284.115V233.885L826 259ZM826 207L869.5 232.115V181.885L826 207ZM914 207L870.5 181.885V232.115L914 207ZM869 233L825.5 207.885V258.115L869 233ZM781 233L824.5 258.115V207.885L781 233ZM916 310.847L959.5 335.962V285.732L916 310.847ZM1004 310.847L960.5 285.732V335.962L1004 310.847Z" fill="url(#paint4_linear_1401_19032)"/>
<path fill-rule="evenodd" clip-rule="evenodd" d="M554 154.847L554.5 154.558V154L554.983 154.279L599.5 128.577V128L600 128.289L600.5 128V128.577L645.017 154.279L645.5 154V154.558L646 154.847L645.983 154.856L690.149 180.356L690.5 180.153V180.558L691 180.847L690.851 180.933L735.017 206.432L735.5 206.153V206.711L736 207L735.983 207.01L781 233L735.983 258.99L736 259L735.5 259.289V259.847L735.017 259.568L690.5 285.269V285.847L690 285.558L689.5 285.847V285.713L645.983 310.837L646 310.847L645.5 311.135V311.694L645.017 311.415L600.5 337.116V337.694L600 337.405L599.5 337.694V337.116L554.983 311.415L554.5 311.694V311.135L554 310.847L554.017 310.837L510.5 285.713V285.847L510 285.558L509.5 285.847V285.27L464.983 259.568L464.5 259.847V259.289L464 259L464.017 258.99L419 233L464.017 207.01L464 207L464.5 206.711V206.153L464.983 206.432L509.149 180.933L509 180.847L509.5 180.558V180.153L509.851 180.356L554.017 154.856L554 154.847ZM554.5 259.866L511.116 284.914L554.5 309.962V259.866ZM510.5 283.981V233.885L553.884 258.933L510.5 283.981ZM554.5 258.115L511 233L554.5 207.885V258.115ZM555.5 257.981V207.885L598.884 232.933L555.5 257.981ZM601.116 232.933L644.5 207.885V257.981L601.116 232.933ZM645.5 207.885L689 233L645.5 258.115V207.885ZM646.116 258.933L689.5 233.885V283.981L646.116 258.933ZM688.884 284.914L645.5 309.962V259.866L688.884 284.914ZM644.5 309.962L601 284.847L644.5 259.732V309.962ZM643.884 258.914L600.5 283.962V233.866L643.884 258.914ZM599.5 233.866V283.962L556.116 258.914L599.5 233.866ZM555.5 259.732L599 284.847L555.5 309.962V259.732ZM599.5 231.962L556 206.847L599.5 181.732V231.962ZM600.5 181.732L644 206.847L600.5 231.962V181.732ZM599.5 179.962L556 154.847L599.5 129.732V179.962ZM600.5 129.732L644 154.847L600.5 179.962V129.732ZM645.5 155.732L689 180.847L645.5 205.962V155.732ZM644.5 205.962L601 180.847L644.5 155.732V205.962ZM555.5 155.732L599 180.847L555.5 205.962V155.732ZM554.5 205.962L511 180.847L554.5 155.732V205.962ZM734 259L690.5 233.885V284.115L734 259ZM646 207L689.5 232.115V181.885L646 207ZM734 207L690.5 181.885V232.115L734 207ZM779 233L735.5 207.885V258.115L779 233ZM691 233L734.5 258.115V207.885L691 233ZM466 259L509.5 284.115V233.885L466 259ZM466 207L509.5 232.115V181.885L466 207ZM554 207L510.5 181.885V232.115L554 207ZM509 233L465.5 207.885V258.115L509 233ZM421 233L464.5 258.115V207.885L421 233ZM556 310.847L599.5 335.962V285.732L556 310.847ZM644 310.847L600.5 285.732V335.962L644 310.847Z" fill="url(#paint5_linear_1401_19032)"/>
<path fill-rule="evenodd" clip-rule="evenodd" d="M374 258.847L374.5 258.558V258L374.983 258.279L419.5 232.577V232L420 232.289L420.5 232V232.577L465.017 258.279L465.5 258V258.558L466 258.847L465.983 258.856L510.149 284.356L510.5 284.153V284.558L511 284.847L510.851 284.933L555.017 310.432L555.5 310.153V310.711L556 311L555.983 311.01L601 337L555.983 362.99L556 363L555.5 363.289V363.847L555.017 363.568L510.5 389.269V389.847L510 389.558L509.5 389.847V389.713L465.983 414.837L466 414.847L465.5 415.135V415.694L465.017 415.415L420.5 441.116V441.694L420 441.405L419.5 441.694V441.116L374.983 415.415L374.5 415.694V415.135L374 414.847L374.017 414.837L330.5 389.713V389.847L330 389.558L329.5 389.847V389.27L284.983 363.568L284.5 363.847V363.289L284 363L284.017 362.99L239 337L284.017 311.01L284 311L284.5 310.711V310.153L284.983 310.432L329.149 284.933L329 284.847L329.5 284.558V284.153L329.851 284.356L374.017 258.856L374 258.847ZM374.5 363.866L331.116 388.914L374.5 413.962V363.866ZM330.5 387.981V337.885L373.884 362.933L330.5 387.981ZM374.5 362.115L331 337L374.5 311.885V362.115ZM375.5 361.981V311.885L418.884 336.933L375.5 361.981ZM421.116 336.933L464.5 311.885V361.981L421.116 336.933ZM465.5 311.885L509 337L465.5 362.115V311.885ZM466.116 362.933L509.5 337.885V387.981L466.116 362.933ZM508.884 388.914L465.5 413.962V363.866L508.884 388.914ZM464.5 413.962L421 388.847L464.5 363.732V413.962ZM463.884 362.914L420.5 387.962V337.866L463.884 362.914ZM419.5 337.866V387.962L376.116 362.914L419.5 337.866ZM375.5 363.732L419 388.847L375.5 413.962V363.732ZM419.5 335.962L376 310.847L419.5 285.732V335.962ZM420.5 285.732L464 310.847L420.5 335.962V285.732ZM419.5 283.962L376 258.847L419.5 233.732V283.962ZM420.5 233.732L464 258.847L420.5 283.962V233.732ZM465.5 259.732L509 284.847L465.5 309.962V259.732ZM464.5 309.962L421 284.847L464.5 259.732V309.962ZM375.5 259.732L419 284.847L375.5 309.962V259.732ZM374.5 309.962L331 284.847L374.5 259.732V309.962ZM554 363L510.5 337.885V388.115L554 363ZM466 311L509.5 336.115V285.885L466 311ZM554 311L510.5 285.885V336.115L554 311ZM599 337L555.5 311.885V362.115L599 337ZM511 337L554.5 362.115V311.885L511 337ZM286 363L329.5 388.115V337.885L286 363ZM286 311L329.5 336.115V285.885L286 311ZM374 311L330.5 285.885V336.115L374 311ZM329 337L285.5 311.885V362.115L329 337ZM241 337L284.5 362.115V311.885L241 337ZM376 414.847L419.5 439.962V389.732L376 414.847ZM464 414.847L420.5 389.732V439.962L464 414.847Z" fill="url(#paint6_linear_1401_19032)"/>
<path fill-rule="evenodd" clip-rule="evenodd" d="M914 -53.1532L914.5 -53.4419V-54L914.983 -53.7209L959.5 -79.4227V-80L960 -79.7113L960.5 -80V-79.4227L1005.02 -53.7209L1005.5 -54V-53.4419L1006 -53.1532L1005.98 -53.1436L1050.15 -27.6443L1050.5 -27.8468V-27.4419L1051 -27.1532L1050.85 -27.067L1095.02 -1.56775L1095.5 -1.8468V-1.28867L1096 -1L1095.98 -0.990387L1141 25.0001L1095.98 50.9904L1096 51L1095.5 51.2887V51.8468L1095.02 51.5677L1050.5 77.2694V77.8468L1050 77.5581L1049.5 77.8468V77.7128L1005.98 102.837L1006 102.847L1005.5 103.135V103.694L1005.02 103.415L960.5 129.116V129.694L960 129.405L959.5 129.694V129.116L914.983 103.415L914.5 103.694V103.135L914 102.847L914.017 102.837L870.5 77.7128V77.8469L870 77.5582L869.5 77.8469V77.2695L824.983 51.5678L824.5 51.8469V51.2888L824 51.0001L824.017 50.9905L779 25.0001L824.017 -0.990295L824 -0.999878L824.5 -1.28857V-1.84668L824.983 -1.56763L869.149 -27.0669L869 -27.1532L869.5 -27.4419V-27.8467L869.851 -27.6443L914.017 -53.1436L914 -53.1532ZM914.5 51.8661L871.116 76.9138L914.5 101.962V51.8661ZM870.5 75.9808V25.8854L913.884 50.933L870.5 75.9808ZM914.5 50.1148L871 25.0001L914.5 -0.114624V50.1148ZM915.5 49.9808V-0.114624L958.884 24.933L915.5 49.9808ZM961.116 24.933L1004.5 -0.114746V49.9808L961.116 24.933ZM1005.5 -0.114746L1049 25L1005.5 50.1147V-0.114746ZM1006.12 50.933L1049.5 25.8853V75.9808L1006.12 50.933ZM1048.88 76.9138L1005.5 101.962V51.866L1048.88 76.9138ZM1004.5 101.962L961 76.8468L1004.5 51.7321V101.962ZM1003.88 50.9138L960.5 75.9615V25.866L1003.88 50.9138ZM959.5 25.8661V75.9615L916.116 50.9138L959.5 25.8661ZM915.5 51.7321L959 76.8468L915.5 101.962V51.7321ZM959.5 23.9615L916 -1.1532L959.5 -26.2679V23.9615ZM960.5 -26.2679L1004 -1.1532L960.5 23.9615V-26.2679ZM959.5 -28.0385L916 -53.1532L959.5 -78.2679V-28.0385ZM960.5 -78.2679L1004 -53.1532L960.5 -28.0385V-78.2679ZM1005.5 -52.2679L1049 -27.1532L1005.5 -2.03848V-52.2679ZM1004.5 -2.03848L961 -27.1532L1004.5 -52.2679V-2.03848ZM915.5 -52.2679L959 -27.1532L915.5 -2.03848V-52.2679ZM914.5 -2.03848L871 -27.1532L914.5 -52.2679V-2.03848ZM1094 51L1050.5 25.8853V76.1147L1094 51ZM1006 -1L1049.5 24.1147V-26.1147L1006 -1ZM1094 -1L1050.5 -26.1147V24.1147L1094 -1ZM1139 25.0001L1095.5 -0.114746V50.1147L1139 25.0001ZM1051 25L1094.5 50.1147V-0.114746L1051 25ZM826 51.0001L869.5 76.1148V25.8854L826 51.0001ZM826 -0.999878L869.5 24.1148V-26.1146L826 -0.999878ZM914 -0.999878L870.5 -26.1146V24.1148L914 -0.999878ZM869 25.0001L825.5 -0.114624V50.1148L869 25.0001ZM781 25.0001L824.5 50.1148V-0.114624L781 25.0001ZM916 102.847L959.5 127.962V77.7321L916 102.847ZM1004 102.847L960.5 77.7321V127.962L1004 102.847Z" fill="url(#paint7_linear_1401_19032)"/>
<path fill-rule="evenodd" clip-rule="evenodd" d="M734 50.8468L734.5 50.5581V50L734.983 50.2791L779.5 24.5774V24L780 24.2887L780.5 24V24.5774L825.017 50.2791L825.5 50V50.5581L826 50.8468L825.983 50.8564L870.149 76.3557L870.5 76.1532V76.5581L871 76.8468L870.851 76.933L915.017 102.432L915.5 102.153V102.711L916 103L915.983 103.01L961 129L915.983 154.99L916 155L915.5 155.289V155.847L915.017 155.568L870.5 181.269V181.847L870 181.558L869.5 181.847V181.713L825.983 206.837L826 206.847L825.5 207.135V207.694L825.017 207.415L780.5 233.116V233.694L780 233.405L779.5 233.694V233.116L734.983 207.415L734.5 207.694V207.135L734 206.847L734.017 206.837L690.5 181.713V181.847L690 181.558L689.5 181.847V181.27L644.983 155.568L644.5 155.847V155.289L644 155L644.017 154.99L599 129L644.017 103.01L644 103L644.5 102.711V102.153L644.983 102.432L689.149 76.9331L689 76.8468L689.5 76.5581V76.1533L689.851 76.3557L734.017 50.8564L734 50.8468ZM734.5 155.866L691.116 180.914L734.5 205.962V155.866ZM690.5 179.981V129.885L733.884 154.933L690.5 179.981ZM734.5 154.115L691 129L734.5 103.885V154.115ZM735.5 153.981V103.885L778.884 128.933L735.5 153.981ZM781.116 128.933L824.5 103.885V153.981L781.116 128.933ZM825.5 103.885L869 129L825.5 154.115V103.885ZM826.116 154.933L869.5 129.885V179.981L826.116 154.933ZM868.884 180.914L825.5 205.962V155.866L868.884 180.914ZM824.5 205.962L781 180.847L824.5 155.732V205.962ZM823.884 154.914L780.5 179.962V129.866L823.884 154.914ZM779.5 129.866V179.962L736.116 154.914L779.5 129.866ZM735.5 155.732L779 180.847L735.5 205.962V155.732ZM779.5 127.962L736 102.847L779.5 77.7321V127.962ZM780.5 77.7321L824 102.847L780.5 127.962V77.7321ZM779.5 75.9615L736 50.8468L779.5 25.7321V75.9615ZM780.5 25.7321L824 50.8468L780.5 75.9615V25.7321ZM825.5 51.7321L869 76.8468L825.5 101.962V51.7321ZM824.5 101.962L781 76.8468L824.5 51.7321V101.962ZM735.5 51.7321L779 76.8468L735.5 101.962V51.7321ZM734.5 101.962L691 76.8468L734.5 51.7321V101.962ZM914 155L870.5 129.885V180.115L914 155ZM826 103L869.5 128.115V77.8853L826 103ZM914 103L870.5 77.8853V128.115L914 103ZM959 129L915.5 103.885V154.115L959 129ZM871 129L914.5 154.115V103.885L871 129ZM646 155L689.5 180.115V129.885L646 155ZM646 103L689.5 128.115V77.8854L646 103ZM734 103L690.5 77.8854V128.115L734 103ZM689 129L645.5 103.885V154.115L689 129ZM601 129L644.5 154.115V103.885L601 129ZM736 206.847L779.5 231.962V181.732L736 206.847ZM824 206.847L780.5 181.732V231.962L824 206.847Z" fill="url(#paint8_linear_1401_19032)"/>
<path fill-rule="evenodd" clip-rule="evenodd" d="M374 50.8468L374.5 50.5581V50L374.983 50.2791L419.5 24.5774V24L420 24.2887L420.5 24V24.5774L465.017 50.2791L465.5 50V50.5581L466 50.8468L465.983 50.8564L510.149 76.3557L510.5 76.1532V76.5581L511 76.8468L510.851 76.933L555.017 102.432L555.5 102.153V102.711L556 103L555.983 103.01L601 129L555.983 154.99L556 155L555.5 155.289V155.847L555.017 155.568L510.5 181.269V181.847L510 181.558L509.5 181.847V181.713L465.983 206.837L466 206.847L465.5 207.135V207.694L465.017 207.415L420.5 233.116V233.694L420 233.405L419.5 233.694V233.116L374.983 207.415L374.5 207.694V207.135L374 206.847L374.017 206.837L330.5 181.713V181.847L330 181.558L329.5 181.847V181.27L284.983 155.568L284.5 155.847V155.289L284 155L284.017 154.99L239 129L284.017 103.01L284 103L284.5 102.711V102.153L284.983 102.432L329.149 76.9331L329 76.8468L329.5 76.5581V76.1533L329.851 76.3557L374.017 50.8564L374 50.8468ZM374.5 155.866L331.116 180.914L374.5 205.962V155.866ZM330.5 179.981V129.885L373.884 154.933L330.5 179.981ZM374.5 154.115L331 129L374.5 103.885V154.115ZM375.5 153.981V103.885L418.884 128.933L375.5 153.981ZM421.116 128.933L464.5 103.885V153.981L421.116 128.933ZM465.5 103.885L509 129L465.5 154.115V103.885ZM466.116 154.933L509.5 129.885V179.981L466.116 154.933ZM508.884 180.914L465.5 205.962V155.866L508.884 180.914ZM464.5 205.962L421 180.847L464.5 155.732V205.962ZM463.884 154.914L420.5 179.962V129.866L463.884 154.914ZM419.5 129.866V179.962L376.116 154.914L419.5 129.866ZM375.5 155.732L419 180.847L375.5 205.962V155.732ZM419.5 127.962L376 102.847L419.5 77.7321V127.962ZM420.5 77.7321L464 102.847L420.5 127.962V77.7321ZM419.5 75.9615L376 50.8468L419.5 25.7321V75.9615ZM420.5 25.7321L464 50.8468L420.5 75.9615V25.7321ZM465.5 51.7321L509 76.8468L465.5 101.962V51.7321ZM464.5 101.962L421 76.8468L464.5 51.7321V101.962ZM375.5 51.7321L419 76.8468L375.5 101.962V51.7321ZM374.5 101.962L331 76.8468L374.5 51.7321V101.962ZM554 155L510.5 129.885V180.115L554 155ZM466 103L509.5 128.115V77.8853L466 103ZM554 103L510.5 77.8853V128.115L554 103ZM599 129L555.5 103.885V154.115L599 129ZM511 129L554.5 154.115V103.885L511 129ZM286 155L329.5 180.115V129.885L286 155ZM286 103L329.5 128.115V77.8854L286 103ZM374 103L330.5 77.8854V128.115L374 103ZM329 129L285.5 103.885V154.115L329 129ZM241 129L284.5 154.115V103.885L241 129ZM376 206.847L419.5 231.962V181.732L376 206.847ZM464 206.847L420.5 181.732V231.962L464 206.847Z" fill="url(#paint9_linear_1401_19032)"/>
<path fill-rule="evenodd" clip-rule="evenodd" d="M554 -53.1532L554.5 -53.4419V-54L554.983 -53.7209L599.5 -79.4227V-80L600 -79.7113L600.5 -80V-79.4227L645.017 -53.7209L645.5 -54V-53.4419L646 -53.1532L645.983 -53.1436L690.149 -27.6443L690.5 -27.8468V-27.4419L691 -27.1532L690.851 -27.067L735.017 -1.56775L735.5 -1.8468V-1.28867L736 -1L735.983 -0.990387L781 25.0001L735.983 50.9904L736 51L735.5 51.2887V51.8468L735.017 51.5677L690.5 77.2694V77.8468L690 77.5581L689.5 77.8468V77.7128L645.983 102.837L646 102.847L645.5 103.135V103.694L645.017 103.415L600.5 129.116V129.694L600 129.405L599.5 129.694V129.116L554.983 103.415L554.5 103.694V103.135L554 102.847L554.017 102.837L510.5 77.7128V77.8469L510 77.5582L509.5 77.8469V77.2695L464.983 51.5678L464.5 51.8469V51.2888L464 51.0001L464.017 50.9905L419 25.0001L464.017 -0.990295L464 -0.999878L464.5 -1.28857V-1.84668L464.983 -1.56763L509.149 -27.0669L509 -27.1532L509.5 -27.4419V-27.8467L509.851 -27.6443L554.017 -53.1436L554 -53.1532ZM554.5 51.8661L511.116 76.9138L554.5 101.962V51.8661ZM510.5 75.9808V25.8854L553.884 50.933L510.5 75.9808ZM554.5 50.1148L511 25.0001L554.5 -0.114624V50.1148ZM555.5 49.9808V-0.114624L598.884 24.933L555.5 49.9808ZM601.116 24.933L644.5 -0.114746V49.9808L601.116 24.933ZM645.5 -0.114746L689 25L645.5 50.1147V-0.114746ZM646.116 50.933L689.5 25.8853V75.9808L646.116 50.933ZM688.884 76.9138L645.5 101.962V51.866L688.884 76.9138ZM644.5 101.962L601 76.8468L644.5 51.7321V101.962ZM643.884 50.9138L600.5 75.9615V25.866L643.884 50.9138ZM599.5 25.8661V75.9615L556.116 50.9138L599.5 25.8661ZM555.5 51.7321L599 76.8468L555.5 101.962V51.7321ZM599.5 23.9615L556 -1.1532L599.5 -26.2679V23.9615ZM600.5 -26.2679L644 -1.1532L600.5 23.9615V-26.2679ZM599.5 -28.0385L556 -53.1532L599.5 -78.2679V-28.0385ZM600.5 -78.2679L644 -53.1532L600.5 -28.0385V-78.2679ZM645.5 -52.2679L689 -27.1532L645.5 -2.03848V-52.2679ZM644.5 -2.03848L601 -27.1532L644.5 -52.2679V-2.03848ZM555.5 -52.2679L599 -27.1532L555.5 -2.03848V-52.2679ZM554.5 -2.03848L511 -27.1532L554.5 -52.2679V-2.03848ZM734 51L690.5 25.8853V76.1147L734 51ZM646 -1L689.5 24.1147V-26.1147L646 -1ZM734 -1L690.5 -26.1147V24.1147L734 -1ZM779 25.0001L735.5 -0.114746V50.1147L779 25.0001ZM691 25L734.5 50.1147V-0.114746L691 25ZM466 51.0001L509.5 76.1148V25.8854L466 51.0001ZM466 -0.999878L509.5 24.1148V-26.1146L466 -0.999878ZM554 -0.999878L510.5 -26.1146V24.1148L554 -0.999878ZM509 25.0001L465.5 -0.114624V50.1148L509 25.0001ZM421 25.0001L464.5 50.1148V-0.114624L421 25.0001ZM556 102.847L599.5 127.962V77.7321L556 102.847ZM644 102.847L600.5 77.7321V127.962L644 102.847Z" fill="url(#paint10_linear_1401_19032)"/>
<path fill-rule="evenodd" clip-rule="evenodd" d="M734 -157.153L734.5 -157.442V-158L734.983 -157.721L779.5 -183.423V-184L780 -183.711L780.5 -184V-183.423L825.017 -157.721L825.5 -158V-157.442L826 -157.153L825.983 -157.144L870.149 -131.644L870.5 -131.847V-131.442L871 -131.153L870.851 -131.067L915.017 -105.568L915.5 -105.847V-105.289L916 -105L915.983 -104.99L961 -78.9999L915.983 -53.0096L916 -53L915.5 -52.7113V-52.1532L915.017 -52.4323L870.5 -26.7306V-26.1532L870 -26.4419L869.5 -26.1532V-26.2872L825.983 -1.16284L826 -1.1532L825.5 -0.864532V-0.306427L825.017 -0.58548L780.5 25.1162V25.6936L780 25.4049L779.5 25.6936V25.1162L734.983 -0.58548L734.5 -0.306427V-0.864532L734 -1.1532L734.017 -1.16284L690.5 -26.2872V-26.1531L690 -26.4418L689.5 -26.1531V-26.7305L644.983 -52.4322L644.5 -52.1531V-52.7112L644 -52.9999L644.017 -53.0095L599 -78.9999L644.017 -104.99L644 -105L644.5 -105.289V-105.847L644.983 -105.568L689.149 -131.067L689 -131.153L689.5 -131.442V-131.847L689.851 -131.644L734.017 -157.144L734 -157.153ZM734.5 -52.1339L691.116 -27.0862L734.5 -2.03848V-52.1339ZM690.5 -28.0192V-78.1146L733.884 -53.0669L690.5 -28.0192ZM734.5 -53.8852L691 -78.9999L734.5 -104.115V-53.8852ZM735.5 -54.0192V-104.115L778.884 -79.067L735.5 -54.0192ZM781.116 -79.067L824.5 -104.115V-54.0192L781.116 -79.067ZM825.5 -104.115L869 -79L825.5 -53.8853V-104.115ZM826.116 -53.067L869.5 -78.1147V-28.0192L826.116 -53.067ZM868.884 -27.0862L825.5 -2.03848V-52.134L868.884 -27.0862ZM824.5 -2.03848L781 -27.1532L824.5 -52.2679V-2.03848ZM823.884 -53.0862L780.5 -28.0385V-78.134L823.884 -53.0862ZM779.5 -78.1339V-28.0385L736.116 -53.0862L779.5 -78.1339ZM735.5 -52.2679L779 -27.1532L735.5 -2.03848V-52.2679ZM779.5 -80.0385L736 -105.153L779.5 -130.268V-80.0385ZM780.5 -130.268L824 -105.153L780.5 -80.0385V-130.268ZM779.5 -132.038L736 -157.153L779.5 -182.268V-132.038ZM780.5 -182.268L824 -157.153L780.5 -132.038V-182.268ZM825.5 -156.268L869 -131.153L825.5 -106.038V-156.268ZM824.5 -106.038L781 -131.153L824.5 -156.268V-106.038ZM735.5 -156.268L779 -131.153L735.5 -106.038V-156.268ZM734.5 -106.038L691 -131.153L734.5 -156.268V-106.038ZM914 -53L870.5 -78.1147V-27.8853L914 -53ZM826 -105L869.5 -79.8853V-130.115L826 -105ZM914 -105L870.5 -130.115V-79.8853L914 -105ZM959 -78.9999L915.5 -104.115V-53.8853L959 -78.9999ZM871 -79L914.5 -53.8853V-104.115L871 -79ZM646 -52.9999L689.5 -27.8852V-78.1146L646 -52.9999ZM646 -105L689.5 -79.8852V-130.115L646 -105ZM734 -105L690.5 -130.115V-79.8852L734 -105ZM689 -78.9999L645.5 -104.115V-53.8852L689 -78.9999ZM601 -78.9999L644.5 -53.8852V-104.115L601 -78.9999ZM736 -1.1532L779.5 23.9615V-26.2679L736 -1.1532ZM824 -1.1532L780.5 -26.2679V23.9615L824 -1.1532Z" fill="url(#paint11_linear_1401_19032)"/>
<path fill-rule="evenodd" clip-rule="evenodd" d="M374 -157.153L374.5 -157.442V-158L374.983 -157.721L419.5 -183.423V-184L420 -183.711L420.5 -184V-183.423L465.017 -157.721L465.5 -158V-157.442L466 -157.153L465.983 -157.144L510.149 -131.644L510.5 -131.847V-131.442L511 -131.153L510.851 -131.067L555.017 -105.568L555.5 -105.847V-105.289L556 -105L555.983 -104.99L601 -78.9999L555.983 -53.0096L556 -53L555.5 -52.7113V-52.1532L555.017 -52.4323L510.5 -26.7306V-26.1532L510 -26.4419L509.5 -26.1532V-26.2872L465.983 -1.16284L466 -1.1532L465.5 -0.864532V-0.306427L465.017 -0.58548L420.5 25.1162V25.6936L420 25.4049L419.5 25.6936V25.1162L374.983 -0.58548L374.5 -0.306427V-0.864532L374 -1.1532L374.017 -1.16284L330.5 -26.2872V-26.1531L330 -26.4418L329.5 -26.1531V-26.7305L284.983 -52.4322L284.5 -52.1531V-52.7112L284 -52.9999L284.017 -53.0095L239 -78.9999L284.017 -104.99L284 -105L284.5 -105.289V-105.847L284.983 -105.568L329.149 -131.067L329 -131.153L329.5 -131.442V-131.847L329.851 -131.644L374.017 -157.144L374 -157.153ZM374.5 -52.1339L331.116 -27.0862L374.5 -2.03848V-52.1339ZM330.5 -28.0192V-78.1146L373.884 -53.0669L330.5 -28.0192ZM374.5 -53.8852L331 -78.9999L374.5 -104.115V-53.8852ZM375.5 -54.0192V-104.115L418.884 -79.067L375.5 -54.0192ZM421.116 -79.067L464.5 -104.115V-54.0192L421.116 -79.067ZM465.5 -104.115L509 -79L465.5 -53.8853V-104.115ZM466.116 -53.067L509.5 -78.1147V-28.0192L466.116 -53.067ZM508.884 -27.0862L465.5 -2.03848V-52.134L508.884 -27.0862ZM464.5 -2.03848L421 -27.1532L464.5 -52.2679V-2.03848ZM463.884 -53.0862L420.5 -28.0385V-78.134L463.884 -53.0862ZM419.5 -78.1339V-28.0385L376.116 -53.0862L419.5 -78.1339ZM375.5 -52.2679L419 -27.1532L375.5 -2.03848V-52.2679ZM419.5 -80.0385L376 -105.153L419.5 -130.268V-80.0385ZM420.5 -130.268L464 -105.153L420.5 -80.0385V-130.268ZM419.5 -132.038L376 -157.153L419.5 -182.268V-132.038ZM420.5 -182.268L464 -157.153L420.5 -132.038V-182.268ZM465.5 -156.268L509 -131.153L465.5 -106.038V-156.268ZM464.5 -106.038L421 -131.153L464.5 -156.268V-106.038ZM375.5 -156.268L419 -131.153L375.5 -106.038V-156.268ZM374.5 -106.038L331 -131.153L374.5 -156.268V-106.038ZM554 -53L510.5 -78.1147V-27.8853L554 -53ZM466 -105L509.5 -79.8853V-130.115L466 -105ZM554 -105L510.5 -130.115V-79.8853L554 -105ZM599 -78.9999L555.5 -104.115V-53.8853L599 -78.9999ZM511 -79L554.5 -53.8853V-104.115L511 -79ZM286 -52.9999L329.5 -27.8852V-78.1146L286 -52.9999ZM286 -105L329.5 -79.8852V-130.115L286 -105ZM374 -105L330.5 -130.115V-79.8852L374 -105ZM329 -78.9999L285.5 -104.115V-53.8852L329 -78.9999ZM241 -78.9999L284.5 -53.8852V-104.115L241 -78.9999ZM376 -1.1532L419.5 23.9615V-26.2679L376 -1.1532ZM464 -1.1532L420.5 -26.2679V23.9615L464 -1.1532Z" fill="url(#paint12_linear_1401_19032)"/>
<path fill-rule="evenodd" clip-rule="evenodd" d="M914 362.847L914.5 362.558V362L914.983 362.279L959.5 336.577V336L960 336.289L960.5 336V336.577L1005.02 362.279L1005.5 362V362.558L1006 362.847L1005.98 362.856L1050.15 388.356L1050.5 388.153V388.558L1051 388.847L1050.85 388.933L1095.02 414.432L1095.5 414.153V414.711L1096 415L1095.98 415.01L1141 441L1095.98 466.99L1096 467L1095.5 467.289V467.847L1095.02 467.568L1050.5 493.269V493.847L1050 493.558L1049.5 493.847V493.713L1005.98 518.837L1006 518.847L1005.5 519.135V519.694L1005.02 519.415L960.5 545.116V545.694L960 545.405L959.5 545.694V545.116L914.983 519.415L914.5 519.694V519.135L914 518.847L914.017 518.837L870.5 493.713V493.847L870 493.558L869.5 493.847V493.27L824.983 467.568L824.5 467.847V467.289L824 467L824.017 466.99L779 441L824.017 415.01L824 415L824.5 414.711V414.153L824.983 414.432L869.149 388.933L869 388.847L869.5 388.558V388.153L869.851 388.356L914.017 362.856L914 362.847ZM914.5 467.866L871.116 492.914L914.5 517.962V467.866ZM870.5 491.981V441.885L913.884 466.933L870.5 491.981ZM914.5 466.115L871 441L914.5 415.885V466.115ZM915.5 465.981V415.885L958.884 440.933L915.5 465.981ZM961.116 440.933L1004.5 415.885V465.981L961.116 440.933ZM1005.5 415.885L1049 441L1005.5 466.115V415.885ZM1006.12 466.933L1049.5 441.885V491.981L1006.12 466.933ZM1048.88 492.914L1005.5 517.962V467.866L1048.88 492.914ZM1004.5 517.962L961 492.847L1004.5 467.732V517.962ZM1003.88 466.914L960.5 491.962V441.866L1003.88 466.914ZM959.5 441.866V491.962L916.116 466.914L959.5 441.866ZM915.5 467.732L959 492.847L915.5 517.962V467.732ZM959.5 439.962L916 414.847L959.5 389.732V439.962ZM960.5 389.732L1004 414.847L960.5 439.962V389.732ZM959.5 387.962L916 362.847L959.5 337.732V387.962ZM960.5 337.732L1004 362.847L960.5 387.962V337.732ZM1005.5 363.732L1049 388.847L1005.5 413.962V363.732ZM1004.5 413.962L961 388.847L1004.5 363.732V413.962ZM915.5 363.732L959 388.847L915.5 413.962V363.732ZM914.5 413.962L871 388.847L914.5 363.732V413.962ZM1094 467L1050.5 441.885V492.115L1094 467ZM1006 415L1049.5 440.115V389.885L1006 415ZM1094 415L1050.5 389.885V440.115L1094 415ZM1139 441L1095.5 415.885V466.115L1139 441ZM1051 441L1094.5 466.115V415.885L1051 441ZM826 467L869.5 492.115V441.885L826 467ZM826 415L869.5 440.115V389.885L826 415ZM914 415L870.5 389.885V440.115L914 415ZM869 441L825.5 415.885V466.115L869 441ZM781 441L824.5 466.115V415.885L781 441ZM916 518.847L959.5 543.962V493.732L916 518.847ZM1004 518.847L960.5 493.732V543.962L1004 518.847Z" fill="url(#paint13_linear_1401_19032)"/>
<path fill-rule="evenodd" clip-rule="evenodd" d="M554 362.847L554.5 362.558V362L554.983 362.279L599.5 336.577V336L600 336.289L600.5 336V336.577L645.017 362.279L645.5 362V362.558L646 362.847L645.983 362.856L690.149 388.356L690.5 388.153V388.558L691 388.847L690.851 388.933L735.017 414.432L735.5 414.153V414.711L736 415L735.983 415.01L781 441L735.983 466.99L736 467L735.5 467.289V467.847L735.017 467.568L690.5 493.269V493.847L690 493.558L689.5 493.847V493.713L645.983 518.837L646 518.847L645.5 519.135V519.694L645.017 519.415L600.5 545.116V545.694L600 545.405L599.5 545.694V545.116L554.983 519.415L554.5 519.694V519.135L554 518.847L554.017 518.837L510.5 493.713V493.847L510 493.558L509.5 493.847V493.27L464.983 467.568L464.5 467.847V467.289L464 467L464.017 466.99L419 441L464.017 415.01L464 415L464.5 414.711V414.153L464.983 414.432L509.149 388.933L509 388.847L509.5 388.558V388.153L509.851 388.356L554.017 362.856L554 362.847ZM554.5 467.866L511.116 492.914L554.5 517.962V467.866ZM510.5 491.981V441.885L553.884 466.933L510.5 491.981ZM554.5 466.115L511 441L554.5 415.885V466.115ZM555.5 465.981V415.885L598.884 440.933L555.5 465.981ZM601.116 440.933L644.5 415.885V465.981L601.116 440.933ZM645.5 415.885L689 441L645.5 466.115V415.885ZM646.116 466.933L689.5 441.885V491.981L646.116 466.933ZM688.884 492.914L645.5 517.962V467.866L688.884 492.914ZM644.5 517.962L601 492.847L644.5 467.732V517.962ZM643.884 466.914L600.5 491.962V441.866L643.884 466.914ZM599.5 441.866V491.962L556.116 466.914L599.5 441.866ZM555.5 467.732L599 492.847L555.5 517.962V467.732ZM599.5 439.962L556 414.847L599.5 389.732V439.962ZM600.5 389.732L644 414.847L600.5 439.962V389.732ZM599.5 387.962L556 362.847L599.5 337.732V387.962ZM600.5 337.732L644 362.847L600.5 387.962V337.732ZM645.5 363.732L689 388.847L645.5 413.962V363.732ZM644.5 413.962L601 388.847L644.5 363.732V413.962ZM555.5 363.732L599 388.847L555.5 413.962V363.732ZM554.5 413.962L511 388.847L554.5 363.732V413.962ZM734 467L690.5 441.885V492.115L734 467ZM646 415L689.5 440.115V389.885L646 415ZM734 415L690.5 389.885V440.115L734 415ZM779 441L735.5 415.885V466.115L779 441ZM691 441L734.5 466.115V415.885L691 441ZM466 467L509.5 492.115V441.885L466 467ZM466 415L509.5 440.115V389.885L466 415ZM554 415L510.5 389.885V440.115L554 415ZM509 441L465.5 415.885V466.115L509 441ZM421 441L464.5 466.115V415.885L421 441ZM556 518.847L599.5 543.962V493.732L556 518.847ZM644 518.847L600.5 493.732V543.962L644 518.847Z" fill="url(#paint14_linear_1401_19032)"/>
<path fill-rule="evenodd" clip-rule="evenodd" d="M194 362.847L194.5 362.558V362L194.983 362.279L239.5 336.577V336L240 336.289L240.5 336V336.577L285.017 362.279L285.5 362V362.558L286 362.847L285.983 362.856L330.149 388.356L330.5 388.153V388.558L331 388.847L330.851 388.933L375.017 414.432L375.5 414.153V414.711L376 415L375.983 415.01L421 441L375.983 466.99L376 467L375.5 467.289V467.847L375.017 467.568L330.5 493.269V493.847L330 493.558L329.5 493.847V493.713L285.983 518.837L286 518.847L285.5 519.135V519.694L285.017 519.415L240.5 545.116V545.694L240 545.405L239.5 545.694V545.116L194.983 519.415L194.5 519.694V519.135L194 518.847L194.017 518.837L150.5 493.713V493.847L150 493.558L149.5 493.847V493.27L104.983 467.568L104.5 467.847V467.289L104 467L104.017 466.99L59 441L104.017 415.01L104 415L104.5 414.711V414.153L104.983 414.432L149.149 388.933L149 388.847L149.5 388.558V388.153L149.851 388.356L194.017 362.856L194 362.847ZM194.5 467.866L151.116 492.914L194.5 517.962V467.866ZM150.5 491.981V441.885L193.884 466.933L150.5 491.981ZM194.5 466.115L151 441L194.5 415.885V466.115ZM195.5 465.981V415.885L238.884 440.933L195.5 465.981ZM241.116 440.933L284.5 415.885V465.981L241.116 440.933ZM285.5 415.885L329 441L285.5 466.115V415.885ZM286.116 466.933L329.5 441.885V491.981L286.116 466.933ZM328.884 492.914L285.5 517.962V467.866L328.884 492.914ZM284.5 517.962L241 492.847L284.5 467.732V517.962ZM283.884 466.914L240.5 491.962V441.866L283.884 466.914ZM239.5 441.866V491.962L196.116 466.914L239.5 441.866ZM195.5 467.732L239 492.847L195.5 517.962V467.732ZM239.5 439.962L196 414.847L239.5 389.732V439.962ZM240.5 389.732L284 414.847L240.5 439.962V389.732ZM239.5 387.962L196 362.847L239.5 337.732V387.962ZM240.5 337.732L284 362.847L240.5 387.962V337.732ZM285.5 363.732L329 388.847L285.5 413.962V363.732ZM284.5 413.962L241 388.847L284.5 363.732V413.962ZM195.5 363.732L239 388.847L195.5 413.962V363.732ZM194.5 413.962L151 388.847L194.5 363.732V413.962ZM374 467L330.5 441.885V492.115L374 467ZM286 415L329.5 440.115V389.885L286 415ZM374 415L330.5 389.885V440.115L374 415ZM419 441L375.5 415.885V466.115L419 441ZM331 441L374.5 466.115V415.885L331 441ZM106 467L149.5 492.115V441.885L106 467ZM106 415L149.5 440.115V389.885L106 415ZM194 415L150.5 389.885V440.115L194 415ZM149 441L105.5 415.885V466.115L149 441ZM61 441L104.5 466.115V415.885L61 441ZM196 518.847L239.5 543.962V493.732L196 518.847ZM284 518.847L240.5 493.732V543.962L284 518.847Z" fill="url(#paint15_linear_1401_19032)"/>
<path fill-rule="evenodd" clip-rule="evenodd" d="M-166 362.847L-165.5 362.558V362L-165.017 362.279L-120.5 336.577V336L-120 336.289L-119.5 336V336.577L-74.9834 362.279L-74.5 362V362.558L-74 362.847L-74.0166 362.856L-29.8506 388.356L-29.5 388.153V388.558L-29 388.847L-29.1494 388.933L15.0166 414.432L15.5 414.153V414.711L16 415L15.9834 415.01L61 441L15.9834 466.99L16 467L15.5 467.289V467.847L15.0166 467.568L-29.5 493.269V493.847L-30 493.558L-30.5 493.847V493.713L-74.0166 518.837L-74 518.847L-74.5 519.135V519.694L-74.9834 519.415L-119.5 545.116V545.694L-120 545.405L-120.5 545.694V545.116L-165.017 519.415L-165.5 519.694V519.135L-166 518.847L-165.983 518.837L-209.5 493.713V493.847L-210 493.558L-210.5 493.847V493.27L-255.017 467.568L-255.5 467.847V467.289L-256 467L-255.983 466.99L-301 441L-255.983 415.01L-256 415L-255.5 414.711V414.153L-255.017 414.432L-210.851 388.933L-211 388.847L-210.5 388.558V388.153L-210.149 388.356L-165.983 362.856L-166 362.847ZM-165.5 467.866L-208.884 492.914L-165.5 517.962V467.866ZM-209.5 491.981V441.885L-166.116 466.933L-209.5 491.981ZM-165.5 466.115L-209 441L-165.5 415.885V466.115ZM-164.5 465.981V415.885L-121.116 440.933L-164.5 465.981ZM-118.884 440.933L-75.5 415.885V465.981L-118.884 440.933ZM-74.5 415.885L-31 441L-74.5 466.115V415.885ZM-73.884 466.933L-30.5 441.885V491.981L-73.884 466.933ZM-31.116 492.914L-74.5 517.962V467.866L-31.116 492.914ZM-75.5 517.962L-119 492.847L-75.5 467.732V517.962ZM-76.116 466.914L-119.5 491.962V441.866L-76.116 466.914ZM-120.5 441.866V491.962L-163.884 466.914L-120.5 441.866ZM-164.5 467.732L-121 492.847L-164.5 517.962V467.732ZM-120.5 439.962L-164 414.847L-120.5 389.732V439.962ZM-119.5 389.732L-76 414.847L-119.5 439.962V389.732ZM-120.5 387.962L-164 362.847L-120.5 337.732V387.962ZM-119.5 337.732L-76 362.847L-119.5 387.962V337.732ZM-74.5 363.732L-31 388.847L-74.5 413.962V363.732ZM-75.5 413.962L-119 388.847L-75.5 363.732V413.962ZM-164.5 363.732L-121 388.847L-164.5 413.962V363.732ZM-165.5 413.962L-209 388.847L-165.5 363.732V413.962ZM14 467L-29.5 441.885V492.115L14 467ZM-74 415L-30.5 440.115V389.885L-74 415ZM14 415L-29.5 389.885V440.115L14 415ZM59 441L15.5 415.885V466.115L59 441ZM-29 441L14.5 466.115V415.885L-29 441ZM-254 467L-210.5 492.115V441.885L-254 467ZM-254 415L-210.5 440.115V389.885L-254 415ZM-166 415L-209.5 389.885V440.115L-166 415ZM-211 441L-254.5 415.885V466.115L-211 441ZM-299 441L-255.5 466.115V415.885L-299 441ZM-164 518.847L-120.5 543.962V493.732L-164 518.847ZM-76 518.847L-119.5 493.732V543.962L-76 518.847Z" fill="url(#paint16_linear_1401_19032)"/>
<path fill-rule="evenodd" clip-rule="evenodd" d="M14 258.847L14.5 258.558V258L14.9834 258.279L59.5 232.577V232L60 232.289L60.5 232V232.577L105.017 258.279L105.5 258V258.558L106 258.847L105.983 258.856L150.149 284.356L150.5 284.153V284.558L151 284.847L150.851 284.933L195.017 310.432L195.5 310.153V310.711L196 311L195.983 311.01L241 337L195.983 362.99L196 363L195.5 363.289V363.847L195.017 363.568L150.5 389.269V389.847L150 389.558L149.5 389.847V389.713L105.983 414.837L106 414.847L105.5 415.135V415.694L105.017 415.415L60.5 441.116V441.694L60 441.405L59.5 441.694V441.116L14.9834 415.415L14.5 415.694V415.135L14 414.847L14.0166 414.837L-29.5 389.713V389.847L-30 389.558L-30.5 389.847V389.27L-75.0166 363.568L-75.5 363.847V363.289L-76 363L-75.9834 362.99L-121 337L-75.9834 311.01L-76 311L-75.5 310.711V310.153L-75.0166 310.432L-30.8506 284.933L-31 284.847L-30.5 284.558V284.153L-30.1494 284.356L14.0166 258.856L14 258.847ZM14.5 363.866L-28.8838 388.914L14.5 413.962V363.866ZM-29.5 387.981V337.885L13.8838 362.933L-29.5 387.981ZM14.5 362.115L-29 337L14.5 311.885V362.115ZM15.5 361.981V311.885L58.884 336.933L15.5 361.981ZM61.116 336.933L104.5 311.885V361.981L61.116 336.933ZM105.5 311.885L149 337L105.5 362.115V311.885ZM106.116 362.933L149.5 337.885V387.981L106.116 362.933ZM148.884 388.914L105.5 413.962V363.866L148.884 388.914ZM104.5 413.962L61 388.847L104.5 363.732V413.962ZM103.884 362.914L60.5 387.962V337.866L103.884 362.914ZM59.5 337.866V387.962L16.1162 362.914L59.5 337.866ZM15.5 363.732L59 388.847L15.5 413.962V363.732ZM59.5 335.962L16 310.847L59.5 285.732V335.962ZM60.5 285.732L104 310.847L60.5 335.962V285.732ZM59.5 283.962L16 258.847L59.5 233.732V283.962ZM60.5 233.732L104 258.847L60.5 283.962V233.732ZM105.5 259.732L149 284.847L105.5 309.962V259.732ZM104.5 309.962L61 284.847L104.5 259.732V309.962ZM15.5 259.732L59 284.847L15.5 309.962V259.732ZM14.5 309.962L-29 284.847L14.5 259.732V309.962ZM194 363L150.5 337.885V388.115L194 363ZM106 311L149.5 336.115V285.885L106 311ZM194 311L150.5 285.885V336.115L194 311ZM239 337L195.5 311.885V362.115L239 337ZM151 337L194.5 362.115V311.885L151 337ZM-74 363L-30.5 388.115V337.885L-74 363ZM-74 311L-30.5 336.115V285.885L-74 311ZM14 311L-29.5 285.885V336.115L14 311ZM-31 337L-74.5 311.885V362.115L-31 337ZM-119 337L-75.5 362.115V311.885L-119 337ZM16 414.847L59.5 439.962V389.732L16 414.847ZM104 414.847L60.5 389.732V439.962L104 414.847Z" fill="url(#paint17_linear_1401_19032)"/>
<path fill-rule="evenodd" clip-rule="evenodd" d="M194 154.847L194.5 154.558V154L194.983 154.279L239.5 128.577V128L240 128.289L240.5 128V128.577L285.017 154.279L285.5 154V154.558L286 154.847L285.983 154.856L330.149 180.356L330.5 180.153V180.558L331 180.847L330.851 180.933L375.017 206.432L375.5 206.153V206.711L376 207L375.983 207.01L421 233L375.983 258.99L376 259L375.5 259.289V259.847L375.017 259.568L330.5 285.269V285.847L330 285.558L329.5 285.847V285.713L285.983 310.837L286 310.847L285.5 311.135V311.694L285.017 311.415L240.5 337.116V337.694L240 337.405L239.5 337.694V337.116L194.983 311.415L194.5 311.694V311.135L194 310.847L194.017 310.837L150.5 285.713V285.847L150 285.558L149.5 285.847V285.27L104.983 259.568L104.5 259.847V259.289L104 259L104.017 258.99L59 233L104.017 207.01L104 207L104.5 206.711V206.153L104.983 206.432L149.149 180.933L149 180.847L149.5 180.558V180.153L149.851 180.356L194.017 154.856L194 154.847ZM194.5 259.866L151.116 284.914L194.5 309.962V259.866ZM150.5 283.981V233.885L193.884 258.933L150.5 283.981ZM194.5 258.115L151 233L194.5 207.885V258.115ZM195.5 257.981V207.885L238.884 232.933L195.5 257.981ZM241.116 232.933L284.5 207.885V257.981L241.116 232.933ZM285.5 207.885L329 233L285.5 258.115V207.885ZM286.116 258.933L329.5 233.885V283.981L286.116 258.933ZM328.884 284.914L285.5 309.962V259.866L328.884 284.914ZM284.5 309.962L241 284.847L284.5 259.732V309.962ZM283.884 258.914L240.5 283.962V233.866L283.884 258.914ZM239.5 233.866V283.962L196.116 258.914L239.5 233.866ZM195.5 259.732L239 284.847L195.5 309.962V259.732ZM239.5 231.962L196 206.847L239.5 181.732V231.962ZM240.5 181.732L284 206.847L240.5 231.962V181.732ZM239.5 179.962L196 154.847L239.5 129.732V179.962ZM240.5 129.732L284 154.847L240.5 179.962V129.732ZM285.5 155.732L329 180.847L285.5 205.962V155.732ZM284.5 205.962L241 180.847L284.5 155.732V205.962ZM195.5 155.732L239 180.847L195.5 205.962V155.732ZM194.5 205.962L151 180.847L194.5 155.732V205.962ZM374 259L330.5 233.885V284.115L374 259ZM286 207L329.5 232.115V181.885L286 207ZM374 207L330.5 181.885V232.115L374 207ZM419 233L375.5 207.885V258.115L419 233ZM331 233L374.5 258.115V207.885L331 233ZM106 259L149.5 284.115V233.885L106 259ZM106 207L149.5 232.115V181.885L106 207ZM194 207L150.5 181.885V232.115L194 207ZM149 233L105.5 207.885V258.115L149 233ZM61 233L104.5 258.115V207.885L61 233ZM196 310.847L239.5 335.962V285.732L196 310.847ZM284 310.847L240.5 285.732V335.962L284 310.847Z" fill="url(#paint18_linear_1401_19032)"/>
<path fill-rule="evenodd" clip-rule="evenodd" d="M14 50.8468L14.5 50.5581V50L14.9834 50.2791L59.5 24.5774V24L60 24.2887L60.5 24V24.5774L105.017 50.2791L105.5 50V50.5581L106 50.8468L105.983 50.8564L150.149 76.3557L150.5 76.1532V76.5581L151 76.8468L150.851 76.933L195.017 102.432L195.5 102.153V102.711L196 103L195.983 103.01L241 129L195.983 154.99L196 155L195.5 155.289V155.847L195.017 155.568L150.5 181.269V181.847L150 181.558L149.5 181.847V181.713L105.983 206.837L106 206.847L105.5 207.135V207.694L105.017 207.415L60.5 233.116V233.694L60 233.405L59.5 233.694V233.116L14.9834 207.415L14.5 207.694V207.135L14 206.847L14.0166 206.837L-29.5 181.713V181.847L-30 181.558L-30.5 181.847V181.27L-75.0166 155.568L-75.5 155.847V155.289L-76 155L-75.9834 154.99L-121 129L-75.9834 103.01L-76 103L-75.5 102.711V102.153L-75.0166 102.432L-30.8506 76.9331L-31 76.8468L-30.5 76.5581V76.1533L-30.1494 76.3557L14.0166 50.8564L14 50.8468ZM14.5 155.866L-28.8838 180.914L14.5 205.962V155.866ZM-29.5 179.981V129.885L13.8838 154.933L-29.5 179.981ZM14.5 154.115L-29 129L14.5 103.885V154.115ZM15.5 153.981V103.885L58.884 128.933L15.5 153.981ZM61.116 128.933L104.5 103.885V153.981L61.116 128.933ZM105.5 103.885L149 129L105.5 154.115V103.885ZM106.116 154.933L149.5 129.885V179.981L106.116 154.933ZM148.884 180.914L105.5 205.962V155.866L148.884 180.914ZM104.5 205.962L61 180.847L104.5 155.732V205.962ZM103.884 154.914L60.5 179.962V129.866L103.884 154.914ZM59.5 129.866V179.962L16.1162 154.914L59.5 129.866ZM15.5 155.732L59 180.847L15.5 205.962V155.732ZM59.5 127.962L16 102.847L59.5 77.7321V127.962ZM60.5 77.7321L104 102.847L60.5 127.962V77.7321ZM59.5 75.9615L16 50.8468L59.5 25.7321V75.9615ZM60.5 25.7321L104 50.8468L60.5 75.9615V25.7321ZM105.5 51.7321L149 76.8468L105.5 101.962V51.7321ZM104.5 101.962L61 76.8468L104.5 51.7321V101.962ZM15.5 51.7321L59 76.8468L15.5 101.962V51.7321ZM14.5 101.962L-29 76.8468L14.5 51.7321V101.962ZM194 155L150.5 129.885V180.115L194 155ZM106 103L149.5 128.115V77.8853L106 103ZM194 103L150.5 77.8853V128.115L194 103ZM239 129L195.5 103.885V154.115L239 129ZM151 129L194.5 154.115V103.885L151 129ZM-74 155L-30.5 180.115V129.885L-74 155ZM-74 103L-30.5 128.115V77.8854L-74 103ZM14 103L-29.5 77.8854V128.115L14 103ZM-31 129L-74.5 103.885V154.115L-31 129ZM-119 129L-75.5 154.115V103.885L-119 129ZM16 206.847L59.5 231.962V181.732L16 206.847ZM104 206.847L60.5 181.732V231.962L104 206.847Z" fill="url(#paint19_linear_1401_19032)"/>
<path fill-rule="evenodd" clip-rule="evenodd" d="M194 -53.1532L194.5 -53.4419V-54L194.983 -53.7209L239.5 -79.4227V-80L240 -79.7113L240.5 -80V-79.4227L285.017 -53.7209L285.5 -54V-53.4419L286 -53.1532L285.983 -53.1436L330.149 -27.6443L330.5 -27.8468V-27.4419L331 -27.1532L330.851 -27.067L375.017 -1.56775L375.5 -1.8468V-1.28867L376 -1L375.983 -0.990387L421 25.0001L375.983 50.9904L376 51L375.5 51.2887V51.8468L375.017 51.5677L330.5 77.2694V77.8468L330 77.5581L329.5 77.8468V77.7128L285.983 102.837L286 102.847L285.5 103.135V103.694L285.017 103.415L240.5 129.116V129.694L240 129.405L239.5 129.694V129.116L194.983 103.415L194.5 103.694V103.135L194 102.847L194.017 102.837L150.5 77.7128V77.8469L150 77.5582L149.5 77.8469V77.2695L104.983 51.5678L104.5 51.8469V51.2888L104 51.0001L104.017 50.9905L59 25.0001L104.017 -0.990295L104 -0.999878L104.5 -1.28857V-1.84668L104.983 -1.56763L149.149 -27.0669L149 -27.1532L149.5 -27.4419V-27.8467L149.851 -27.6443L194.017 -53.1436L194 -53.1532ZM194.5 51.8661L151.116 76.9138L194.5 101.962V51.8661ZM150.5 75.9808V25.8854L193.884 50.933L150.5 75.9808ZM194.5 50.1148L151 25.0001L194.5 -0.114624V50.1148ZM195.5 49.9808V-0.114624L238.884 24.933L195.5 49.9808ZM241.116 24.933L284.5 -0.114746V49.9808L241.116 24.933ZM285.5 -0.114746L329 25L285.5 50.1147V-0.114746ZM286.116 50.933L329.5 25.8853V75.9808L286.116 50.933ZM328.884 76.9138L285.5 101.962V51.866L328.884 76.9138ZM284.5 101.962L241 76.8468L284.5 51.7321V101.962ZM283.884 50.9138L240.5 75.9615V25.866L283.884 50.9138ZM239.5 25.8661V75.9615L196.116 50.9138L239.5 25.8661ZM195.5 51.7321L239 76.8468L195.5 101.962V51.7321ZM239.5 23.9615L196 -1.1532L239.5 -26.2679V23.9615ZM240.5 -26.2679L284 -1.1532L240.5 23.9615V-26.2679ZM239.5 -28.0385L196 -53.1532L239.5 -78.2679V-28.0385ZM240.5 -78.2679L284 -53.1532L240.5 -28.0385V-78.2679ZM285.5 -52.2679L329 -27.1532L285.5 -2.03848V-52.2679ZM284.5 -2.03848L241 -27.1532L284.5 -52.2679V-2.03848ZM195.5 -52.2679L239 -27.1532L195.5 -2.03848V-52.2679ZM194.5 -2.03848L151 -27.1532L194.5 -52.2679V-2.03848ZM374 51L330.5 25.8853V76.1147L374 51ZM286 -1L329.5 24.1147V-26.1147L286 -1ZM374 -1L330.5 -26.1147V24.1147L374 -1ZM419 25.0001L375.5 -0.114746V50.1147L419 25.0001ZM331 25L374.5 50.1147V-0.114746L331 25ZM106 51.0001L149.5 76.1148V25.8854L106 51.0001ZM106 -0.999878L149.5 24.1148V-26.1146L106 -0.999878ZM194 -0.999878L150.5 -26.1146V24.1148L194 -0.999878ZM149 25.0001L105.5 -0.114624V50.1148L149 25.0001ZM61 25.0001L104.5 50.1148V-0.114624L61 25.0001ZM196 102.847L239.5 127.962V77.7321L196 102.847ZM284 102.847L240.5 77.7321V127.962L284 102.847Z" fill="url(#paint20_linear_1401_19032)"/>
<path fill-rule="evenodd" clip-rule="evenodd" d="M-166 154.847L-165.5 154.558V154L-165.017 154.279L-120.5 128.577V128L-120 128.289L-119.5 128V128.577L-74.9834 154.279L-74.5 154V154.558L-74 154.847L-74.0166 154.856L-29.8506 180.356L-29.5 180.153V180.558L-29 180.847L-29.1494 180.933L15.0166 206.432L15.5 206.153V206.711L16 207L15.9834 207.01L61 233L15.9834 258.99L16 259L15.5 259.289V259.847L15.0166 259.568L-29.5 285.269V285.847L-30 285.558L-30.5 285.847V285.713L-74.0166 310.837L-74 310.847L-74.5 311.135V311.694L-74.9834 311.415L-119.5 337.116V337.694L-120 337.405L-120.5 337.694V337.116L-165.017 311.415L-165.5 311.694V311.135L-166 310.847L-165.983 310.837L-209.5 285.713V285.847L-210 285.558L-210.5 285.847V285.27L-255.017 259.568L-255.5 259.847V259.289L-256 259L-255.983 258.99L-301 233L-255.983 207.01L-256 207L-255.5 206.711V206.153L-255.017 206.432L-210.851 180.933L-211 180.847L-210.5 180.558V180.153L-210.149 180.356L-165.983 154.856L-166 154.847ZM-165.5 259.866L-208.884 284.914L-165.5 309.962V259.866ZM-209.5 283.981V233.885L-166.116 258.933L-209.5 283.981ZM-165.5 258.115L-209 233L-165.5 207.885V258.115ZM-164.5 257.981V207.885L-121.116 232.933L-164.5 257.981ZM-118.884 232.933L-75.5 207.885V257.981L-118.884 232.933ZM-74.5 207.885L-31 233L-74.5 258.115V207.885ZM-73.884 258.933L-30.5 233.885V283.981L-73.884 258.933ZM-31.116 284.914L-74.5 309.962V259.866L-31.116 284.914ZM-75.5 309.962L-119 284.847L-75.5 259.732V309.962ZM-76.116 258.914L-119.5 283.962V233.866L-76.116 258.914ZM-120.5 233.866V283.962L-163.884 258.914L-120.5 233.866ZM-164.5 259.732L-121 284.847L-164.5 309.962V259.732ZM-120.5 231.962L-164 206.847L-120.5 181.732V231.962ZM-119.5 181.732L-76 206.847L-119.5 231.962V181.732ZM-120.5 179.962L-164 154.847L-120.5 129.732V179.962ZM-119.5 129.732L-76 154.847L-119.5 179.962V129.732ZM-74.5 155.732L-31 180.847L-74.5 205.962V155.732ZM-75.5 205.962L-119 180.847L-75.5 155.732V205.962ZM-164.5 155.732L-121 180.847L-164.5 205.962V155.732ZM-165.5 205.962L-209 180.847L-165.5 155.732V205.962ZM14 259L-29.5 233.885V284.115L14 259ZM-74 207L-30.5 232.115V181.885L-74 207ZM14 207L-29.5 181.885V232.115L14 207ZM59 233L15.5 207.885V258.115L59 233ZM-29 233L14.5 258.115V207.885L-29 233ZM-254 259L-210.5 284.115V233.885L-254 259ZM-254 207L-210.5 232.115V181.885L-254 207ZM-166 207L-209.5 181.885V232.115L-166 207ZM-211 233L-254.5 207.885V258.115L-211 233ZM-299 233L-255.5 258.115V207.885L-299 233ZM-164 310.847L-120.5 335.962V285.732L-164 310.847ZM-76 310.847L-119.5 285.732V335.962L-76 310.847Z" fill="url(#paint21_linear_1401_19032)"/>
<path fill-rule="evenodd" clip-rule="evenodd" d="M-166 -53.1532L-165.5 -53.4419V-54L-165.017 -53.7209L-120.5 -79.4227V-80L-120 -79.7113L-119.5 -80V-79.4227L-74.9834 -53.7209L-74.5 -54V-53.4419L-74 -53.1532L-74.0166 -53.1436L-29.8506 -27.6443L-29.5 -27.8468V-27.4419L-29 -27.1532L-29.1494 -27.067L15.0166 -1.56775L15.5 -1.8468V-1.28867L16 -1L15.9834 -0.990387L61 25.0001L15.9834 50.9904L16 51L15.5 51.2887V51.8468L15.0166 51.5677L-29.5 77.2694V77.8468L-30 77.5581L-30.5 77.8468V77.7128L-74.0166 102.837L-74 102.847L-74.5 103.135V103.694L-74.9834 103.415L-119.5 129.116V129.694L-120 129.405L-120.5 129.694V129.116L-165.017 103.415L-165.5 103.694V103.135L-166 102.847L-165.983 102.837L-209.5 77.7128V77.8469L-210 77.5582L-210.5 77.8469V77.2695L-255.017 51.5678L-255.5 51.8469V51.2888L-256 51.0001L-255.983 50.9905L-301 25.0001L-255.983 -0.990295L-256 -0.999878L-255.5 -1.28857V-1.84668L-255.017 -1.56763L-210.851 -27.0669L-211 -27.1532L-210.5 -27.4419V-27.8467L-210.149 -27.6443L-165.983 -53.1436L-166 -53.1532ZM-165.5 51.8661L-208.884 76.9138L-165.5 101.962V51.8661ZM-209.5 75.9808V25.8854L-166.116 50.933L-209.5 75.9808ZM-165.5 50.1148L-209 25.0001L-165.5 -0.114624V50.1148ZM-164.5 49.9808V-0.114624L-121.116 24.933L-164.5 49.9808ZM-118.884 24.933L-75.5 -0.114746V49.9808L-118.884 24.933ZM-74.5 -0.114746L-31 25L-74.5 50.1147V-0.114746ZM-73.884 50.933L-30.5 25.8853V75.9808L-73.884 50.933ZM-31.116 76.9138L-74.5 101.962V51.866L-31.116 76.9138ZM-75.5 101.962L-119 76.8468L-75.5 51.7321V101.962ZM-76.116 50.9138L-119.5 75.9615V25.866L-76.116 50.9138ZM-120.5 25.8661V75.9615L-163.884 50.9138L-120.5 25.8661ZM-164.5 51.7321L-121 76.8468L-164.5 101.962V51.7321ZM-120.5 23.9615L-164 -1.1532L-120.5 -26.2679V23.9615ZM-119.5 -26.2679L-76 -1.1532L-119.5 23.9615V-26.2679ZM-120.5 -28.0385L-164 -53.1532L-120.5 -78.2679V-28.0385ZM-119.5 -78.2679L-76 -53.1532L-119.5 -28.0385V-78.2679ZM-74.5 -52.2679L-31 -27.1532L-74.5 -2.03848V-52.2679ZM-75.5 -2.03848L-119 -27.1532L-75.5 -52.2679V-2.03848ZM-164.5 -52.2679L-121 -27.1532L-164.5 -2.03848V-52.2679ZM-165.5 -2.03848L-209 -27.1532L-165.5 -52.2679V-2.03848ZM14 51L-29.5 25.8853V76.1147L14 51ZM-74 -1L-30.5 24.1147V-26.1147L-74 -1ZM14 -1L-29.5 -26.1147V24.1147L14 -1ZM59 25.0001L15.5 -0.114746V50.1147L59 25.0001ZM-29 25L14.5 50.1147V-0.114746L-29 25ZM-254 51.0001L-210.5 76.1148V25.8854L-254 51.0001ZM-254 -0.999878L-210.5 24.1148V-26.1146L-254 -0.999878ZM-166 -0.999878L-209.5 -26.1146V24.1148L-166 -0.999878ZM-211 25.0001L-254.5 -0.114624V50.1148L-211 25.0001ZM-299 25.0001L-255.5 50.1148V-0.114624L-299 25.0001ZM-164 102.847L-120.5 127.962V77.7321L-164 102.847ZM-76 102.847L-119.5 77.7321V127.962L-76 102.847Z" fill="url(#paint22_linear_1401_19032)"/>
<path fill-rule="evenodd" clip-rule="evenodd" d="M14 -157.153L14.5 -157.442V-158L14.9834 -157.721L59.5 -183.423V-184L60 -183.711L60.5 -184V-183.423L105.017 -157.721L105.5 -158V-157.442L106 -157.153L105.983 -157.144L150.149 -131.644L150.5 -131.847V-131.442L151 -131.153L150.851 -131.067L195.017 -105.568L195.5 -105.847V-105.289L196 -105L195.983 -104.99L241 -78.9999L195.983 -53.0096L196 -53L195.5 -52.7113V-52.1532L195.017 -52.4323L150.5 -26.7306V-26.1532L150 -26.4419L149.5 -26.1532V-26.2872L105.983 -1.16284L106 -1.1532L105.5 -0.864532V-0.306427L105.017 -0.58548L60.5 25.1162V25.6936L60 25.4049L59.5 25.6936V25.1162L14.9834 -0.58548L14.5 -0.306427V-0.864532L14 -1.1532L14.0166 -1.16284L-29.5 -26.2872V-26.1531L-30 -26.4418L-30.5 -26.1531V-26.7305L-75.0166 -52.4322L-75.5 -52.1531V-52.7112L-76 -52.9999L-75.9834 -53.0095L-121 -78.9999L-75.9834 -104.99L-76 -105L-75.5 -105.289V-105.847L-75.0166 -105.568L-30.8506 -131.067L-31 -131.153L-30.5 -131.442V-131.847L-30.1494 -131.644L14.0166 -157.144L14 -157.153ZM14.5 -52.1339L-28.8838 -27.0862L14.5 -2.03848V-52.1339ZM-29.5 -28.0192V-78.1146L13.8838 -53.0669L-29.5 -28.0192ZM14.5 -53.8852L-29 -78.9999L14.5 -104.115V-53.8852ZM15.5 -54.0192V-104.115L58.884 -79.067L15.5 -54.0192ZM61.116 -79.067L104.5 -104.115V-54.0192L61.116 -79.067ZM105.5 -104.115L149 -79L105.5 -53.8853V-104.115ZM106.116 -53.067L149.5 -78.1147V-28.0192L106.116 -53.067ZM148.884 -27.0862L105.5 -2.03848V-52.134L148.884 -27.0862ZM104.5 -2.03848L61 -27.1532L104.5 -52.2679V-2.03848ZM103.884 -53.0862L60.5 -28.0385V-78.134L103.884 -53.0862ZM59.5 -78.1339V-28.0385L16.1162 -53.0862L59.5 -78.1339ZM15.5 -52.2679L59 -27.1532L15.5 -2.03848V-52.2679ZM59.5 -80.0385L16 -105.153L59.5 -130.268V-80.0385ZM60.5 -130.268L104 -105.153L60.5 -80.0385V-130.268ZM59.5 -132.038L16 -157.153L59.5 -182.268V-132.038ZM60.5 -182.268L104 -157.153L60.5 -132.038V-182.268ZM105.5 -156.268L149 -131.153L105.5 -106.038V-156.268ZM104.5 -106.038L61 -131.153L104.5 -156.268V-106.038ZM15.5 -156.268L59 -131.153L15.5 -106.038V-156.268ZM14.5 -106.038L-29 -131.153L14.5 -156.268V-106.038ZM194 -53L150.5 -78.1147V-27.8853L194 -53ZM106 -105L149.5 -79.8853V-130.115L106 -105ZM194 -105L150.5 -130.115V-79.8853L194 -105ZM239 -78.9999L195.5 -104.115V-53.8853L239 -78.9999ZM151 -79L194.5 -53.8853V-104.115L151 -79ZM-74 -52.9999L-30.5 -27.8852V-78.1146L-74 -52.9999ZM-74 -105L-30.5 -79.8852V-130.115L-74 -105ZM14 -105L-29.5 -130.115V-79.8852L14 -105ZM-31 -78.9999L-74.5 -104.115V-53.8852L-31 -78.9999ZM-119 -78.9999L-75.5 -53.8852V-104.115L-119 -78.9999ZM16 -1.1532L59.5 23.9615V-26.2679L16 -1.1532ZM104 -1.1532L60.5 -26.2679V23.9615L104 -1.1532Z" fill="url(#paint23_linear_1401_19032)"/>
</g>
<defs>
<linearGradient id="paint0_linear_1401_19032" x1="1803.29" y1="-69.3034" x2="-190.764" y2="830.464" gradientUnits="userSpaceOnUse">
<stop stop-color="#008ACC" stop-opacity="0.2"/>
<stop offset="0.141029" stop-color="#008ACC" stop-opacity="0"/>
<stop offset="0.625" stop-color="#008ACC" stop-opacity="0"/>
<stop offset="1" stop-color="white"/>
</linearGradient>
<linearGradient id="paint1_linear_1401_19032" x1="1803.29" y1="-69.3034" x2="-190.764" y2="830.464" gradientUnits="userSpaceOnUse">
<stop stop-color="#008ACC" stop-opacity="0.2"/>
<stop offset="0.141029" stop-color="#008ACC" stop-opacity="0"/>
<stop offset="0.625" stop-color="#008ACC" stop-opacity="0"/>
<stop offset="1" stop-color="white"/>
</linearGradient>
<linearGradient id="paint2_linear_1401_19032" x1="1803.29" y1="-69.3034" x2="-190.764" y2="830.464" gradientUnits="userSpaceOnUse">
<stop stop-color="#008ACC" stop-opacity="0.2"/>
<stop offset="0.141029" stop-color="#008ACC" stop-opacity="0"/>
<stop offset="0.625" stop-color="#008ACC" stop-opacity="0"/>
<stop offset="1" stop-color="white"/>
</linearGradient>
<linearGradient id="paint3_linear_1401_19032" x1="1803.29" y1="-69.3035" x2="-190.764" y2="830.464" gradientUnits="userSpaceOnUse">
<stop stop-color="#008ACC" stop-opacity="0.2"/>
<stop offset="0.141029" stop-color="#008ACC" stop-opacity="0"/>
<stop offset="0.625" stop-color="#008ACC" stop-opacity="0"/>
<stop offset="1" stop-color="white"/>
</linearGradient>
<linearGradient id="paint4_linear_1401_19032" x1="1803.29" y1="-69.3036" x2="-190.764" y2="830.464" gradientUnits="userSpaceOnUse">
<stop stop-color="#008ACC" stop-opacity="0.2"/>
<stop offset="0.141029" stop-color="#008ACC" stop-opacity="0"/>
<stop offset="0.625" stop-color="#008ACC" stop-opacity="0"/>
<stop offset="1" stop-color="white"/>
</linearGradient>
<linearGradient id="paint5_linear_1401_19032" x1="1803.29" y1="-69.3036" x2="-190.764" y2="830.464" gradientUnits="userSpaceOnUse">
<stop stop-color="#008ACC" stop-opacity="0.2"/>
<stop offset="0.141029" stop-color="#008ACC" stop-opacity="0"/>
<stop offset="0.625" stop-color="#008ACC" stop-opacity="0"/>
<stop offset="1" stop-color="white"/>
</linearGradient>
<linearGradient id="paint6_linear_1401_19032" x1="1803.29" y1="-69.3036" x2="-190.764" y2="830.464" gradientUnits="userSpaceOnUse">
<stop stop-color="#008ACC" stop-opacity="0.2"/>
<stop offset="0.141029" stop-color="#008ACC" stop-opacity="0"/>
<stop offset="0.625" stop-color="#008ACC" stop-opacity="0"/>
<stop offset="1" stop-color="white"/>
</linearGradient>
<linearGradient id="paint7_linear_1401_19032" x1="1803.29" y1="-69.3036" x2="-190.764" y2="830.464" gradientUnits="userSpaceOnUse">
<stop stop-color="#008ACC" stop-opacity="0.2"/>
<stop offset="0.141029" stop-color="#008ACC" stop-opacity="0"/>
<stop offset="0.625" stop-color="#008ACC" stop-opacity="0"/>
<stop offset="1" stop-color="white"/>
</linearGradient>
<linearGradient id="paint8_linear_1401_19032" x1="1803.29" y1="-69.3035" x2="-190.764" y2="830.464" gradientUnits="userSpaceOnUse">
<stop stop-color="#008ACC" stop-opacity="0.2"/>
<stop offset="0.141029" stop-color="#008ACC" stop-opacity="0"/>
<stop offset="0.625" stop-color="#008ACC" stop-opacity="0"/>
<stop offset="1" stop-color="white"/>
</linearGradient>
<linearGradient id="paint9_linear_1401_19032" x1="1803.29" y1="-69.3035" x2="-190.764" y2="830.464" gradientUnits="userSpaceOnUse">
<stop stop-color="#008ACC" stop-opacity="0.2"/>
<stop offset="0.141029" stop-color="#008ACC" stop-opacity="0"/>
<stop offset="0.625" stop-color="#008ACC" stop-opacity="0"/>
<stop offset="1" stop-color="white"/>
</linearGradient>
<linearGradient id="paint10_linear_1401_19032" x1="1803.29" y1="-69.3036" x2="-190.764" y2="830.464" gradientUnits="userSpaceOnUse">
<stop stop-color="#008ACC" stop-opacity="0.2"/>
<stop offset="0.141029" stop-color="#008ACC" stop-opacity="0"/>
<stop offset="0.625" stop-color="#008ACC" stop-opacity="0"/>
<stop offset="1" stop-color="white"/>
</linearGradient>
<linearGradient id="paint11_linear_1401_19032" x1="1803.29" y1="-69.3036" x2="-190.764" y2="830.464" gradientUnits="userSpaceOnUse">
<stop stop-color="#008ACC" stop-opacity="0.2"/>
<stop offset="0.141029" stop-color="#008ACC" stop-opacity="0"/>
<stop offset="0.625" stop-color="#008ACC" stop-opacity="0"/>
<stop offset="1" stop-color="white"/>
</linearGradient>
<linearGradient id="paint12_linear_1401_19032" x1="1803.29" y1="-69.3035" x2="-190.764" y2="830.464" gradientUnits="userSpaceOnUse">
<stop stop-color="#008ACC" stop-opacity="0.2"/>
<stop offset="0.141029" stop-color="#008ACC" stop-opacity="0"/>
<stop offset="0.625" stop-color="#008ACC" stop-opacity="0"/>
<stop offset="1" stop-color="white"/>
</linearGradient>
<linearGradient id="paint13_linear_1401_19032" x1="1803.29" y1="-69.3035" x2="-190.764" y2="830.464" gradientUnits="userSpaceOnUse">
<stop stop-color="#008ACC" stop-opacity="0.2"/>
<stop offset="0.141029" stop-color="#008ACC" stop-opacity="0"/>
<stop offset="0.625" stop-color="#008ACC" stop-opacity="0"/>
<stop offset="1" stop-color="white"/>
</linearGradient>
<linearGradient id="paint14_linear_1401_19032" x1="1803.29" y1="-69.3035" x2="-190.764" y2="830.464" gradientUnits="userSpaceOnUse">
<stop stop-color="#008ACC" stop-opacity="0.2"/>
<stop offset="0.141029" stop-color="#008ACC" stop-opacity="0"/>
<stop offset="0.625" stop-color="#008ACC" stop-opacity="0"/>
<stop offset="1" stop-color="white"/>
</linearGradient>
<linearGradient id="paint15_linear_1401_19032" x1="1803.29" y1="-69.3035" x2="-190.764" y2="830.464" gradientUnits="userSpaceOnUse">
<stop stop-color="#008ACC" stop-opacity="0.2"/>
<stop offset="0.141029" stop-color="#008ACC" stop-opacity="0"/>
<stop offset="0.625" stop-color="#008ACC" stop-opacity="0"/>
<stop offset="1" stop-color="white"/>
</linearGradient>
<linearGradient id="paint16_linear_1401_19032" x1="1803.29" y1="-69.3035" x2="-190.764" y2="830.464" gradientUnits="userSpaceOnUse">
<stop stop-color="#008ACC" stop-opacity="0.2"/>
<stop offset="0.141029" stop-color="#008ACC" stop-opacity="0"/>
<stop offset="0.625" stop-color="#008ACC" stop-opacity="0"/>
<stop offset="1" stop-color="white"/>
</linearGradient>
<linearGradient id="paint17_linear_1401_19032" x1="1803.29" y1="-69.3036" x2="-190.764" y2="830.464" gradientUnits="userSpaceOnUse">
<stop stop-color="#008ACC" stop-opacity="0.2"/>
<stop offset="0.141029" stop-color="#008ACC" stop-opacity="0"/>
<stop offset="0.625" stop-color="#008ACC" stop-opacity="0"/>
<stop offset="1" stop-color="white"/>
</linearGradient>
<linearGradient id="paint18_linear_1401_19032" x1="1803.29" y1="-69.3036" x2="-190.764" y2="830.464" gradientUnits="userSpaceOnUse">
<stop stop-color="#008ACC" stop-opacity="0.2"/>
<stop offset="0.141029" stop-color="#008ACC" stop-opacity="0"/>
<stop offset="0.625" stop-color="#008ACC" stop-opacity="0"/>
<stop offset="1" stop-color="white"/>
</linearGradient>
<linearGradient id="paint19_linear_1401_19032" x1="1803.29" y1="-69.3035" x2="-190.764" y2="830.464" gradientUnits="userSpaceOnUse">
<stop stop-color="#008ACC" stop-opacity="0.2"/>
<stop offset="0.141029" stop-color="#008ACC" stop-opacity="0"/>
<stop offset="0.625" stop-color="#008ACC" stop-opacity="0"/>
<stop offset="1" stop-color="white"/>
</linearGradient>
<linearGradient id="paint20_linear_1401_19032" x1="1803.29" y1="-69.3036" x2="-190.764" y2="830.464" gradientUnits="userSpaceOnUse">
<stop stop-color="#008ACC" stop-opacity="0.2"/>
<stop offset="0.141029" stop-color="#008ACC" stop-opacity="0"/>
<stop offset="0.625" stop-color="#008ACC" stop-opacity="0"/>
<stop offset="1" stop-color="white"/>
</linearGradient>
<linearGradient id="paint21_linear_1401_19032" x1="1803.29" y1="-69.3036" x2="-190.764" y2="830.464" gradientUnits="userSpaceOnUse">
<stop stop-color="#008ACC" stop-opacity="0.2"/>
<stop offset="0.141029" stop-color="#008ACC" stop-opacity="0"/>
<stop offset="0.625" stop-color="#008ACC" stop-opacity="0"/>
<stop offset="1" stop-color="white"/>
</linearGradient>
<linearGradient id="paint22_linear_1401_19032" x1="1803.29" y1="-69.3036" x2="-190.764" y2="830.464" gradientUnits="userSpaceOnUse">
<stop stop-color="#008ACC" stop-opacity="0.2"/>
<stop offset="0.141029" stop-color="#008ACC" stop-opacity="0"/>
<stop offset="0.625" stop-color="#008ACC" stop-opacity="0"/>
<stop offset="1" stop-color="white"/>
</linearGradient>
<linearGradient id="paint23_linear_1401_19032" x1="1803.29" y1="-69.3035" x2="-190.764" y2="830.464" gradientUnits="userSpaceOnUse">
<stop stop-color="#008ACC" stop-opacity="0.2"/>
<stop offset="0.141029" stop-color="#008ACC" stop-opacity="0"/>
<stop offset="0.625" stop-color="#008ACC" stop-opacity="0"/>
<stop offset="1" stop-color="white"/>
</linearGradient>
<clipPath id="clip0_1401_19032">
<rect width="781" height="484" fill="white"/>
</clipPath>
</defs>
</svg>
