<svg width="781" height="484" viewBox="0 0 781 484" fill="none" xmlns="http://www.w3.org/2000/svg">
<g clip-path="url(#clip0_1401_19105)">
<path fill-rule="evenodd" clip-rule="evenodd" d="M315 466.847L315.5 466.558V466L315.98 466.279L360.5 440.577V440L361 440.289L361.5 440V440.577L406.02 466.279L406.5 466V466.558L407 466.847L406.98 466.856L451.15 492.356L451.5 492.153V492.558L452 492.847L451.85 492.933L496.02 518.432L496.5 518.153V518.711L497 519L496.98 519.01L542 545L496.98 570.99L497 571L496.5 571.289V571.847L496.02 571.568L451.5 597.269V597.847L451 597.558L450.5 597.847V597.713L406.98 622.837L407 622.847L406.5 623.135V623.694L406.02 623.415L361.5 649.116V649.694L361 649.405L360.5 649.694V649.116L315.98 623.415L315.5 623.694V623.135L315 622.847L315.02 622.837L271.5 597.713V597.847L271 597.558L270.5 597.847V597.27L225.98 571.568L225.5 571.847V571.289L225 571L225.02 570.99L180 545L225.02 519.01L225 519L225.5 518.711V518.153L225.98 518.432L270.15 492.933L270 492.847L270.5 492.558V492.153L270.85 492.356L315.02 466.856L315 466.847ZM315.5 571.866L272.12 596.914L315.5 621.962V571.866ZM271.5 595.981V545.885L314.88 570.933L271.5 595.981ZM315.5 570.115L272 545L315.5 519.885V570.115ZM316.5 569.981V519.885L359.88 544.933L316.5 569.981ZM362.12 544.933L405.5 519.885V569.981L362.12 544.933ZM406.5 519.885L450 545L406.5 570.115V519.885ZM407.12 570.933L450.5 545.885V595.981L407.12 570.933ZM449.88 596.914L406.5 621.962V571.866L449.88 596.914ZM405.5 621.962L362 596.847L405.5 571.732V621.962ZM404.88 570.914L361.5 595.962V545.866L404.88 570.914ZM360.5 545.866V595.962L317.12 570.914L360.5 545.866ZM316.5 571.732L360 596.847L316.5 621.962V571.732ZM360.5 543.962L317 518.847L360.5 493.732V543.962ZM361.5 493.732L405 518.847L361.5 543.962V493.732ZM360.5 491.962L317 466.847L360.5 441.732V491.962ZM361.5 441.732L405 466.847L361.5 491.962V441.732ZM406.5 467.732L450 492.847L406.5 517.962V467.732ZM405.5 517.962L362 492.847L405.5 467.732V517.962ZM316.5 467.732L360 492.847L316.5 517.962V467.732ZM315.5 517.962L272 492.847L315.5 467.732V517.962ZM495 571L451.5 545.885V596.115L495 571ZM407 519L450.5 544.115V493.885L407 519ZM495 519L451.5 493.885V544.115L495 519ZM540 545L496.5 519.885V570.115L540 545ZM452 545L495.5 570.115V519.885L452 545ZM227 571L270.5 596.115V545.885L227 571ZM227 519L270.5 544.115V493.885L227 519ZM315 519L271.5 493.885V544.115L315 519ZM270 545L226.5 519.885V570.115L270 545ZM182 545L225.5 570.115V519.885L182 545ZM317 622.847L360.5 647.962V597.732L317 622.847ZM405 622.847L361.5 597.732V647.962L405 622.847Z" fill="url(#paint0_linear_1401_19105)"/>
<path fill-rule="evenodd" clip-rule="evenodd" d="M-45 466.847L-44.5 466.558V466L-44.02 466.279L0.5 440.577V440L1 440.289L1.5 440V440.577L46.02 466.279L46.5 466V466.558L47 466.847L46.98 466.856L91.15 492.356L91.5 492.153V492.558L92 492.847L91.85 492.933L136.02 518.432L136.5 518.153V518.711L137 519L136.98 519.01L182 545L136.98 570.99L137 571L136.5 571.289V571.847L136.02 571.568L91.5 597.269V597.847L91 597.558L90.5 597.847V597.713L46.98 622.837L47 622.847L46.5 623.135V623.694L46.02 623.415L1.5 649.116V649.694L1 649.405L0.5 649.694V649.116L-44.02 623.415L-44.5 623.694V623.135L-45 622.847L-44.98 622.837L-88.5 597.713V597.847L-89 597.558L-89.5 597.847V597.27L-134.02 571.568L-134.5 571.847V571.289L-135 571L-134.98 570.99L-180 545L-134.98 519.01L-135 519L-134.5 518.711V518.153L-134.02 518.432L-89.85 492.933L-90 492.847L-89.5 492.558V492.153L-89.15 492.356L-44.98 466.856L-45 466.847ZM-44.5 571.866L-87.88 596.914L-44.5 621.962V571.866ZM-88.5 595.981V545.885L-45.12 570.933L-88.5 595.981ZM-44.5 570.115L-88 545L-44.5 519.885V570.115ZM-43.5 569.981V519.885L-0.119995 544.933L-43.5 569.981ZM2.12 544.933L45.5 519.885V569.981L2.12 544.933ZM46.5 519.885L90 545L46.5 570.115V519.885ZM47.12 570.933L90.5 545.885V595.981L47.12 570.933ZM89.88 596.914L46.5 621.962V571.866L89.88 596.914ZM45.5 621.962L2 596.847L45.5 571.732V621.962ZM44.88 570.914L1.5 595.962V545.866L44.88 570.914ZM0.5 545.866V595.962L-42.88 570.914L0.5 545.866ZM-43.5 571.732L0 596.847L-43.5 621.962V571.732ZM0.5 543.962L-43 518.847L0.5 493.732V543.962ZM1.5 493.732L45 518.847L1.5 543.962V493.732ZM0.5 491.962L-43 466.847L0.5 441.732V491.962ZM1.5 441.732L45 466.847L1.5 491.962V441.732ZM46.5 467.732L90 492.847L46.5 517.962V467.732ZM45.5 517.962L2 492.847L45.5 467.732V517.962ZM-43.5 467.732L0 492.847L-43.5 517.962V467.732ZM-44.5 517.962L-88 492.847L-44.5 467.732V517.962ZM135 571L91.5 545.885V596.115L135 571ZM47 519L90.5 544.115V493.885L47 519ZM135 519L91.5 493.885V544.115L135 519ZM180 545L136.5 519.885V570.115L180 545ZM92 545L135.5 570.115V519.885L92 545ZM-133 571L-89.5 596.115V545.885L-133 571ZM-133 519L-89.5 544.115V493.885L-133 519ZM-45 519L-88.5 493.885V544.115L-45 519ZM-90 545L-133.5 519.885V570.115L-90 545ZM-178 545L-134.5 570.115V519.885L-178 545ZM-43 622.847L0.5 647.962V597.732L-43 622.847ZM45 622.847L1.5 597.732V647.962L45 622.847Z" fill="url(#paint1_linear_1401_19105)"/>
<path fill-rule="evenodd" clip-rule="evenodd" d="M675 466.847L675.5 466.558V466L675.98 466.279L720.5 440.577V440L721 440.289L721.5 440V440.577L766.02 466.279L766.5 466V466.558L767 466.847L766.98 466.856L811.15 492.356L811.5 492.153V492.558L812 492.847L811.85 492.933L856.02 518.432L856.5 518.153V518.711L857 519L856.98 519.01L902 545L856.98 570.99L857 571L856.5 571.289V571.847L856.02 571.568L811.5 597.269V597.847L811 597.558L810.5 597.847V597.713L766.98 622.837L767 622.847L766.5 623.135V623.694L766.02 623.415L721.5 649.116V649.694L721 649.405L720.5 649.694V649.116L675.98 623.415L675.5 623.694V623.135L675 622.847L675.02 622.837L631.5 597.713V597.847L631 597.558L630.5 597.847V597.27L585.98 571.568L585.5 571.847V571.289L585 571L585.02 570.99L540 545L585.02 519.01L585 519L585.5 518.711V518.153L585.98 518.432L630.15 492.933L630 492.847L630.5 492.558V492.153L630.85 492.356L675.02 466.856L675 466.847ZM675.5 571.866L632.12 596.914L675.5 621.962V571.866ZM631.5 595.981V545.885L674.88 570.933L631.5 595.981ZM675.5 570.115L632 545L675.5 519.885V570.115ZM676.5 569.981V519.885L719.88 544.933L676.5 569.981ZM722.12 544.933L765.5 519.885V569.981L722.12 544.933ZM766.5 519.885L810 545L766.5 570.115V519.885ZM767.12 570.933L810.5 545.885V595.981L767.12 570.933ZM809.88 596.914L766.5 621.962V571.866L809.88 596.914ZM765.5 621.962L722 596.847L765.5 571.732V621.962ZM764.88 570.914L721.5 595.962V545.866L764.88 570.914ZM720.5 545.866V595.962L677.12 570.914L720.5 545.866ZM676.5 571.732L720 596.847L676.5 621.962V571.732ZM720.5 543.962L677 518.847L720.5 493.732V543.962ZM721.5 493.732L765 518.847L721.5 543.962V493.732ZM720.5 491.962L677 466.847L720.5 441.732V491.962ZM721.5 441.732L765 466.847L721.5 491.962V441.732ZM766.5 467.732L810 492.847L766.5 517.962V467.732ZM765.5 517.962L722 492.847L765.5 467.732V517.962ZM676.5 467.732L720 492.847L676.5 517.962V467.732ZM675.5 517.962L632 492.847L675.5 467.732V517.962ZM855 571L811.5 545.885V596.115L855 571ZM767 519L810.5 544.115V493.885L767 519ZM855 519L811.5 493.885V544.115L855 519ZM900 545L856.5 519.885V570.115L900 545ZM812 545L855.5 570.115V519.885L812 545ZM587 571L630.5 596.115V545.885L587 571ZM587 519L630.5 544.115V493.885L587 519ZM675 519L631.5 493.885V544.115L675 519ZM630 545L586.5 519.885V570.115L630 545ZM542 545L585.5 570.115V519.885L542 545ZM677 622.847L720.5 647.962V597.732L677 622.847ZM765 622.847L721.5 597.732V647.962L765 622.847Z" fill="url(#paint2_linear_1401_19105)"/>
<path fill-rule="evenodd" clip-rule="evenodd" d="M315 258.847L315.5 258.558V258L315.98 258.279L360.5 232.577V232L361 232.289L361.5 232V232.577L406.02 258.279L406.5 258V258.558L407 258.847L406.98 258.856L451.15 284.356L451.5 284.153V284.558L452 284.847L451.85 284.933L496.02 310.432L496.5 310.153V310.711L497 311L496.98 311.01L542 337L496.98 362.99L497 363L496.5 363.289V363.847L496.02 363.568L451.5 389.269V389.847L451 389.558L450.5 389.847V389.713L406.98 414.837L407 414.847L406.5 415.135V415.694L406.02 415.415L361.5 441.116V441.694L361 441.405L360.5 441.694V441.116L315.98 415.415L315.5 415.694V415.135L315 414.847L315.02 414.837L271.5 389.713V389.847L271 389.558L270.5 389.847V389.27L225.98 363.568L225.5 363.847V363.289L225 363L225.02 362.99L180 337L225.02 311.01L225 311L225.5 310.711V310.153L225.98 310.432L270.15 284.933L270 284.847L270.5 284.558V284.153L270.85 284.356L315.02 258.856L315 258.847ZM315.5 363.866L272.12 388.914L315.5 413.962V363.866ZM271.5 387.981V337.885L314.88 362.933L271.5 387.981ZM315.5 362.115L272 337L315.5 311.885V362.115ZM316.5 361.981V311.885L359.88 336.933L316.5 361.981ZM362.12 336.933L405.5 311.885V361.981L362.12 336.933ZM406.5 311.885L450 337L406.5 362.115V311.885ZM407.12 362.933L450.5 337.885V387.981L407.12 362.933ZM449.88 388.914L406.5 413.962V363.866L449.88 388.914ZM405.5 413.962L362 388.847L405.5 363.732V413.962ZM404.88 362.914L361.5 387.962V337.866L404.88 362.914ZM360.5 337.866V387.962L317.12 362.914L360.5 337.866ZM316.5 363.732L360 388.847L316.5 413.962V363.732ZM360.5 335.962L317 310.847L360.5 285.732V335.962ZM361.5 285.732L405 310.847L361.5 335.962V285.732ZM360.5 283.962L317 258.847L360.5 233.732V283.962ZM361.5 233.732L405 258.847L361.5 283.962V233.732ZM406.5 259.732L450 284.847L406.5 309.962V259.732ZM405.5 309.962L362 284.847L405.5 259.732V309.962ZM316.5 259.732L360 284.847L316.5 309.962V259.732ZM315.5 309.962L272 284.847L315.5 259.732V309.962ZM495 363L451.5 337.885V388.115L495 363ZM407 311L450.5 336.115V285.885L407 311ZM495 311L451.5 285.885V336.115L495 311ZM540 337L496.5 311.885V362.115L540 337ZM452 337L495.5 362.115V311.885L452 337ZM227 363L270.5 388.115V337.885L227 363ZM227 311L270.5 336.115V285.885L227 311ZM315 311L271.5 285.885V336.115L315 311ZM270 337L226.5 311.885V362.115L270 337ZM182 337L225.5 362.115V311.885L182 337ZM317 414.847L360.5 439.962V389.732L317 414.847ZM405 414.847L361.5 389.732V439.962L405 414.847Z" fill="url(#paint3_linear_1401_19105)"/>
<path fill-rule="evenodd" clip-rule="evenodd" d="M-45 258.847L-44.5 258.558V258L-44.02 258.279L0.5 232.577V232L1 232.289L1.5 232V232.577L46.02 258.279L46.5 258V258.558L47 258.847L46.98 258.856L91.15 284.356L91.5 284.153V284.558L92 284.847L91.85 284.933L136.02 310.432L136.5 310.153V310.711L137 311L136.98 311.01L182 337L136.98 362.99L137 363L136.5 363.289V363.847L136.02 363.568L91.5 389.269V389.847L91 389.558L90.5 389.847V389.713L46.98 414.837L47 414.847L46.5 415.135V415.694L46.02 415.415L1.5 441.116V441.694L1 441.405L0.5 441.694V441.116L-44.02 415.415L-44.5 415.694V415.135L-45 414.847L-44.98 414.837L-88.5 389.713V389.847L-89 389.558L-89.5 389.847V389.27L-134.02 363.568L-134.5 363.847V363.289L-135 363L-134.98 362.99L-180 337L-134.98 311.01L-135 311L-134.5 310.711V310.153L-134.02 310.432L-89.85 284.933L-90 284.847L-89.5 284.558V284.153L-89.15 284.356L-44.98 258.856L-45 258.847ZM-44.5 363.866L-87.88 388.914L-44.5 413.962V363.866ZM-88.5 387.981V337.885L-45.12 362.933L-88.5 387.981ZM-44.5 362.115L-88 337L-44.5 311.885V362.115ZM-43.5 361.981V311.885L-0.119995 336.933L-43.5 361.981ZM2.12 336.933L45.5 311.885V361.981L2.12 336.933ZM46.5 311.885L90 337L46.5 362.115V311.885ZM47.12 362.933L90.5 337.885V387.981L47.12 362.933ZM89.88 388.914L46.5 413.962V363.866L89.88 388.914ZM45.5 413.962L2 388.847L45.5 363.732V413.962ZM44.88 362.914L1.5 387.962V337.866L44.88 362.914ZM0.5 337.866V387.962L-42.88 362.914L0.5 337.866ZM-43.5 363.732L0 388.847L-43.5 413.962V363.732ZM0.5 335.962L-43 310.847L0.5 285.732V335.962ZM1.5 285.732L45 310.847L1.5 335.962V285.732ZM0.5 283.962L-43 258.847L0.5 233.732V283.962ZM1.5 233.732L45 258.847L1.5 283.962V233.732ZM46.5 259.732L90 284.847L46.5 309.962V259.732ZM45.5 309.962L2 284.847L45.5 259.732V309.962ZM-43.5 259.732L0 284.847L-43.5 309.962V259.732ZM-44.5 309.962L-88 284.847L-44.5 259.732V309.962ZM135 363L91.5 337.885V388.115L135 363ZM47 311L90.5 336.115V285.885L47 311ZM135 311L91.5 285.885V336.115L135 311ZM180 337L136.5 311.885V362.115L180 337ZM92 337L135.5 362.115V311.885L92 337ZM-133 363L-89.5 388.115V337.885L-133 363ZM-133 311L-89.5 336.115V285.885L-133 311ZM-45 311L-88.5 285.885V336.115L-45 311ZM-90 337L-133.5 311.885V362.115L-90 337ZM-178 337L-134.5 362.115V311.885L-178 337ZM-43 414.847L0.5 439.962V389.732L-43 414.847ZM45 414.847L1.5 389.732V439.962L45 414.847Z" fill="url(#paint4_linear_1401_19105)"/>
<path fill-rule="evenodd" clip-rule="evenodd" d="M135 154.847L135.5 154.558V154L135.98 154.279L180.5 128.577V128L181 128.289L181.5 128V128.577L226.02 154.279L226.5 154V154.558L227 154.847L226.98 154.856L271.15 180.356L271.5 180.153V180.558L272 180.847L271.85 180.933L316.02 206.432L316.5 206.153V206.711L317 207L316.98 207.01L362 233L316.98 258.99L317 259L316.5 259.289V259.847L316.02 259.568L271.5 285.269V285.847L271 285.558L270.5 285.847V285.713L226.98 310.837L227 310.847L226.5 311.135V311.694L226.02 311.415L181.5 337.116V337.694L181 337.405L180.5 337.694V337.116L135.98 311.415L135.5 311.694V311.135L135 310.847L135.02 310.837L91.5 285.713V285.847L91 285.558L90.5 285.847V285.27L45.98 259.568L45.5 259.847V259.289L45 259L45.02 258.99L0 233L45.02 207.01L45 207L45.5 206.711V206.153L45.98 206.432L90.15 180.933L90 180.847L90.5 180.558V180.153L90.85 180.356L135.02 154.856L135 154.847ZM135.5 259.866L92.12 284.914L135.5 309.962V259.866ZM91.5 283.981V233.885L134.88 258.933L91.5 283.981ZM135.5 258.115L92 233L135.5 207.885V258.115ZM136.5 257.981V207.885L179.88 232.933L136.5 257.981ZM182.12 232.933L225.5 207.885V257.981L182.12 232.933ZM226.5 207.885L270 233L226.5 258.115V207.885ZM227.12 258.933L270.5 233.885V283.981L227.12 258.933ZM269.88 284.914L226.5 309.962V259.866L269.88 284.914ZM225.5 309.962L182 284.847L225.5 259.732V309.962ZM224.88 258.914L181.5 283.962V233.866L224.88 258.914ZM180.5 233.866V283.962L137.12 258.914L180.5 233.866ZM136.5 259.732L180 284.847L136.5 309.962V259.732ZM180.5 231.962L137 206.847L180.5 181.732V231.962ZM181.5 181.732L225 206.847L181.5 231.962V181.732ZM180.5 179.962L137 154.847L180.5 129.732V179.962ZM181.5 129.732L225 154.847L181.5 179.962V129.732ZM226.5 155.732L270 180.847L226.5 205.962V155.732ZM225.5 205.962L182 180.847L225.5 155.732V205.962ZM136.5 155.732L180 180.847L136.5 205.962V155.732ZM135.5 205.962L92 180.847L135.5 155.732V205.962ZM315 259L271.5 233.885V284.115L315 259ZM227 207L270.5 232.115V181.885L227 207ZM315 207L271.5 181.885V232.115L315 207ZM360 233L316.5 207.885V258.115L360 233ZM272 233L315.5 258.115V207.885L272 233ZM47 259L90.5 284.115V233.885L47 259ZM47 207L90.5 232.115V181.885L47 207ZM135 207L91.5 181.885V232.115L135 207ZM90 233L46.5 207.885V258.115L90 233ZM2 233L45.5 258.115V207.885L2 233ZM137 310.847L180.5 335.962V285.732L137 310.847ZM225 310.847L181.5 285.732V335.962L225 310.847Z" fill="url(#paint5_linear_1401_19105)"/>
<path fill-rule="evenodd" clip-rule="evenodd" d="M-225 154.847L-224.5 154.558V154L-224.017 154.279L-179.5 128.577V128L-179 128.289L-178.5 128V128.577L-133.98 154.279L-133.5 154V154.558L-133 154.847L-133.02 154.856L-88.85 180.356L-88.5 180.153V180.558L-88 180.847L-88.15 180.933L-43.98 206.432L-43.5 206.153V206.711L-43 207L-43.02 207.01L2 233L-43.02 258.99L-43 259L-43.5 259.289V259.847L-43.98 259.568L-88.5 285.269V285.847L-89 285.558L-89.5 285.847V285.713L-133.02 310.837L-133 310.847L-133.5 311.135V311.694L-133.98 311.415L-178.5 337.116V337.694L-179 337.405L-179.5 337.694V337.116L-224.017 311.415L-224.5 311.694V311.135L-225 310.847L-224.983 310.837L-268.5 285.713V285.847L-269 285.558L-269.5 285.847V285.27L-314.017 259.568L-314.5 259.847V259.289L-315 259L-314.983 258.99L-360 233L-314.983 207.01L-315 207L-314.5 206.711V206.153L-314.017 206.432L-269.851 180.933L-270 180.847L-269.5 180.558V180.153L-269.149 180.356L-224.983 154.856L-225 154.847ZM-224.5 259.866L-267.884 284.914L-224.5 309.962V259.866ZM-268.5 283.981V233.885L-225.116 258.933L-268.5 283.981ZM-224.5 258.115L-268 233L-224.5 207.885V258.115ZM-223.5 257.981V207.885L-180.116 232.933L-223.5 257.981ZM-177.884 232.933L-134.5 207.885V257.981L-177.884 232.933ZM-133.5 207.885L-90 233L-133.5 258.115V207.885ZM-132.88 258.933L-89.5 233.885V283.981L-132.88 258.933ZM-90.12 284.914L-133.5 309.962V259.866L-90.12 284.914ZM-134.5 309.962L-178 284.847L-134.5 259.732V309.962ZM-135.12 258.914L-178.5 283.962V233.866L-135.12 258.914ZM-179.5 233.866V283.962L-222.884 258.914L-179.5 233.866ZM-223.5 259.732L-180 284.847L-223.5 309.962V259.732ZM-179.5 231.962L-223 206.847L-179.5 181.732V231.962ZM-178.5 181.732L-135 206.847L-178.5 231.962V181.732ZM-179.5 179.962L-223 154.847L-179.5 129.732V179.962ZM-178.5 129.732L-135 154.847L-178.5 179.962V129.732ZM-133.5 155.732L-90 180.847L-133.5 205.962V155.732ZM-134.5 205.962L-178 180.847L-134.5 155.732V205.962ZM-223.5 155.732L-180 180.847L-223.5 205.962V155.732ZM-224.5 205.962L-268 180.847L-224.5 155.732V205.962ZM-45 259L-88.5 233.885V284.115L-45 259ZM-133 207L-89.5 232.115V181.885L-133 207ZM-45 207L-88.5 181.885V232.115L-45 207ZM0 233L-43.5 207.885V258.115L0 233ZM-88 233L-44.5 258.115V207.885L-88 233ZM-313 259L-269.5 284.115V233.885L-313 259ZM-313 207L-269.5 232.115V181.885L-313 207ZM-225 207L-268.5 181.885V232.115L-225 207ZM-270 233L-313.5 207.885V258.115L-270 233ZM-358 233L-314.5 258.115V207.885L-358 233ZM-223 310.847L-179.5 335.962V285.732L-223 310.847ZM-135 310.847L-178.5 285.732V335.962L-135 310.847Z" fill="url(#paint6_linear_1401_19105)"/>
<path fill-rule="evenodd" clip-rule="evenodd" d="M495 154.847L495.5 154.558V154L495.98 154.279L540.5 128.577V128L541 128.289L541.5 128V128.577L586.02 154.279L586.5 154V154.558L587 154.847L586.98 154.856L631.15 180.356L631.5 180.153V180.558L632 180.847L631.85 180.933L676.02 206.432L676.5 206.153V206.711L677 207L676.98 207.01L722 233L676.98 258.99L677 259L676.5 259.289V259.847L676.02 259.568L631.5 285.269V285.847L631 285.558L630.5 285.847V285.713L586.98 310.837L587 310.847L586.5 311.135V311.694L586.02 311.415L541.5 337.116V337.694L541 337.405L540.5 337.694V337.116L495.98 311.415L495.5 311.694V311.135L495 310.847L495.02 310.837L451.5 285.713V285.847L451 285.558L450.5 285.847V285.27L405.98 259.568L405.5 259.847V259.289L405 259L405.02 258.99L360 233L405.02 207.01L405 207L405.5 206.711V206.153L405.98 206.432L450.15 180.933L450 180.847L450.5 180.558V180.153L450.85 180.356L495.02 154.856L495 154.847ZM495.5 259.866L452.12 284.914L495.5 309.962V259.866ZM451.5 283.981V233.885L494.88 258.933L451.5 283.981ZM495.5 258.115L452 233L495.5 207.885V258.115ZM496.5 257.981V207.885L539.88 232.933L496.5 257.981ZM542.12 232.933L585.5 207.885V257.981L542.12 232.933ZM586.5 207.885L630 233L586.5 258.115V207.885ZM587.12 258.933L630.5 233.885V283.981L587.12 258.933ZM629.88 284.914L586.5 309.962V259.866L629.88 284.914ZM585.5 309.962L542 284.847L585.5 259.732V309.962ZM584.88 258.914L541.5 283.962V233.866L584.88 258.914ZM540.5 233.866V283.962L497.12 258.914L540.5 233.866ZM496.5 259.732L540 284.847L496.5 309.962V259.732ZM540.5 231.962L497 206.847L540.5 181.732V231.962ZM541.5 181.732L585 206.847L541.5 231.962V181.732ZM540.5 179.962L497 154.847L540.5 129.732V179.962ZM541.5 129.732L585 154.847L541.5 179.962V129.732ZM586.5 155.732L630 180.847L586.5 205.962V155.732ZM585.5 205.962L542 180.847L585.5 155.732V205.962ZM496.5 155.732L540 180.847L496.5 205.962V155.732ZM495.5 205.962L452 180.847L495.5 155.732V205.962ZM675 259L631.5 233.885V284.115L675 259ZM587 207L630.5 232.115V181.885L587 207ZM675 207L631.5 181.885V232.115L675 207ZM720 233L676.5 207.885V258.115L720 233ZM632 233L675.5 258.115V207.885L632 233ZM407 259L450.5 284.115V233.885L407 259ZM407 207L450.5 232.115V181.885L407 207ZM495 207L451.5 181.885V232.115L495 207ZM450 233L406.5 207.885V258.115L450 233ZM362 233L405.5 258.115V207.885L362 233ZM497 310.847L540.5 335.962V285.732L497 310.847ZM585 310.847L541.5 285.732V335.962L585 310.847Z" fill="url(#paint7_linear_1401_19105)"/>
<path fill-rule="evenodd" clip-rule="evenodd" d="M675 50.8468L675.5 50.5581V50L675.98 50.2791L720.5 24.5774V24L721 24.2887L721.5 24V24.5774L766.02 50.2791L766.5 50V50.5581L767 50.8468L766.98 50.8564L811.15 76.3557L811.5 76.1532V76.5581L812 76.8468L811.85 76.933L856.02 102.432L856.5 102.153V102.711L857 103L856.98 103.01L902 129L856.98 154.99L857 155L856.5 155.289V155.847L856.02 155.568L811.5 181.269V181.847L811 181.558L810.5 181.847V181.713L766.98 206.837L767 206.847L766.5 207.135V207.694L766.02 207.415L721.5 233.116V233.694L721 233.405L720.5 233.694V233.116L675.98 207.415L675.5 207.694V207.135L675 206.847L675.02 206.837L631.5 181.713V181.847L631 181.558L630.5 181.847V181.27L585.98 155.568L585.5 155.847V155.289L585 155L585.02 154.99L540 129L585.02 103.01L585 103L585.5 102.711V102.153L585.98 102.432L630.15 76.9331L630 76.8468L630.5 76.5581V76.1533L630.85 76.3557L675.02 50.8564L675 50.8468ZM675.5 155.866L632.12 180.914L675.5 205.962V155.866ZM631.5 179.981V129.885L674.88 154.933L631.5 179.981ZM675.5 154.115L632 129L675.5 103.885V154.115ZM676.5 153.981V103.885L719.88 128.933L676.5 153.981ZM722.12 128.933L765.5 103.885V153.981L722.12 128.933ZM766.5 103.885L810 129L766.5 154.115V103.885ZM767.12 154.933L810.5 129.885V179.981L767.12 154.933ZM809.88 180.914L766.5 205.962V155.866L809.88 180.914ZM765.5 205.962L722 180.847L765.5 155.732V205.962ZM764.88 154.914L721.5 179.962V129.866L764.88 154.914ZM720.5 129.866V179.962L677.12 154.914L720.5 129.866ZM676.5 155.732L720 180.847L676.5 205.962V155.732ZM720.5 127.962L677 102.847L720.5 77.7321V127.962ZM721.5 77.7321L765 102.847L721.5 127.962V77.7321ZM720.5 75.9615L677 50.8468L720.5 25.7321V75.9615ZM721.5 25.7321L765 50.8468L721.5 75.9615V25.7321ZM766.5 51.7321L810 76.8468L766.5 101.962V51.7321ZM765.5 101.962L722 76.8468L765.5 51.7321V101.962ZM676.5 51.7321L720 76.8468L676.5 101.962V51.7321ZM675.5 101.962L632 76.8468L675.5 51.7321V101.962ZM855 155L811.5 129.885V180.115L855 155ZM767 103L810.5 128.115V77.8853L767 103ZM855 103L811.5 77.8853V128.115L855 103ZM900 129L856.5 103.885V154.115L900 129ZM812 129L855.5 154.115V103.885L812 129ZM587 155L630.5 180.115V129.885L587 155ZM587 103L630.5 128.115V77.8854L587 103ZM675 103L631.5 77.8854V128.115L675 103ZM630 129L586.5 103.885V154.115L630 129ZM542 129L585.5 154.115V103.885L542 129ZM677 206.847L720.5 231.962V181.732L677 206.847ZM765 206.847L721.5 181.732V231.962L765 206.847Z" fill="url(#paint8_linear_1401_19105)"/>
<path fill-rule="evenodd" clip-rule="evenodd" d="M495 -53.1532L495.5 -53.4419V-54L495.98 -53.7209L540.5 -79.4227V-80L541 -79.7113L541.5 -80V-79.4227L586.02 -53.7209L586.5 -54V-53.4419L587 -53.1532L586.98 -53.1436L631.15 -27.6443L631.5 -27.8468V-27.4419L632 -27.1532L631.85 -27.067L676.02 -1.56775L676.5 -1.8468V-1.28867L677 -1L676.98 -0.990387L722 25L676.98 50.9904L677 51L676.5 51.2887V51.8468L676.02 51.5677L631.5 77.2694V77.8468L631 77.5581L630.5 77.8468V77.7128L586.98 102.837L587 102.847L586.5 103.135V103.694L586.02 103.415L541.5 129.116V129.694L541 129.405L540.5 129.694V129.116L495.98 103.415L495.5 103.694V103.135L495 102.847L495.02 102.837L451.5 77.7128V77.8469L451 77.5582L450.5 77.8469V77.2695L405.98 51.5678L405.5 51.8469V51.2888L405 51.0001L405.02 50.9905L360 25.0001L405.02 -0.990295L405 -0.999878L405.5 -1.28857V-1.84668L405.98 -1.56763L450.15 -27.0669L450 -27.1532L450.5 -27.4419V-27.8467L450.85 -27.6443L495.02 -53.1436L495 -53.1532ZM495.5 51.8661L452.12 76.9138L495.5 101.962V51.8661ZM451.5 75.9808V25.8854L494.88 50.933L451.5 75.9808ZM495.5 50.1148L452 25.0001L495.5 -0.114624V50.1148ZM496.5 49.9808V-0.114624L539.88 24.933L496.5 49.9808ZM542.12 24.933L585.5 -0.114746V49.9808L542.12 24.933ZM586.5 -0.114746L630 25L586.5 50.1147V-0.114746ZM587.12 50.933L630.5 25.8853V75.9808L587.12 50.933ZM629.88 76.9138L586.5 101.962V51.866L629.88 76.9138ZM585.5 101.962L542 76.8468L585.5 51.7321V101.962ZM584.88 50.9138L541.5 75.9615V25.866L584.88 50.9138ZM540.5 25.8661V75.9615L497.12 50.9138L540.5 25.8661ZM496.5 51.7321L540 76.8468L496.5 101.962V51.7321ZM540.5 23.9615L497 -1.1532L540.5 -26.2679V23.9615ZM541.5 -26.2679L585 -1.1532L541.5 23.9615V-26.2679ZM540.5 -28.0385L497 -53.1532L540.5 -78.2679V-28.0385ZM541.5 -78.2679L585 -53.1532L541.5 -28.0385V-78.2679ZM586.5 -52.2679L630 -27.1532L586.5 -2.03848V-52.2679ZM585.5 -2.03848L542 -27.1532L585.5 -52.2679V-2.03848ZM496.5 -52.2679L540 -27.1532L496.5 -2.03848V-52.2679ZM495.5 -2.03848L452 -27.1532L495.5 -52.2679V-2.03848ZM675 51L631.5 25.8853V76.1147L675 51ZM587 -1L630.5 24.1147V-26.1147L587 -1ZM675 -1L631.5 -26.1147V24.1147L675 -1ZM720 25L676.5 -0.114746V50.1147L720 25ZM632 25L675.5 50.1147V-0.114746L632 25ZM407 51.0001L450.5 76.1148V25.8854L407 51.0001ZM407 -0.999878L450.5 24.1148V-26.1146L407 -0.999878ZM495 -0.999878L451.5 -26.1146V24.1148L495 -0.999878ZM450 25.0001L406.5 -0.114624V50.1148L450 25.0001ZM362 25.0001L405.5 50.1148V-0.114624L362 25.0001ZM497 102.847L540.5 127.962V77.7321L497 102.847ZM585 102.847L541.5 77.7321V127.962L585 102.847Z" fill="url(#paint9_linear_1401_19105)"/>
<path fill-rule="evenodd" clip-rule="evenodd" d="M675 -157.153L675.5 -157.442V-158L675.98 -157.721L720.5 -183.423V-184L721 -183.711L721.5 -184V-183.423L766.02 -157.721L766.5 -158V-157.442L767 -157.153L766.98 -157.144L811.15 -131.644L811.5 -131.847V-131.442L812 -131.153L811.85 -131.067L856.02 -105.568L856.5 -105.847V-105.289L857 -105L856.98 -104.99L902 -79L856.98 -53.0096L857 -53L856.5 -52.7113V-52.1532L856.02 -52.4323L811.5 -26.7306V-26.1532L811 -26.4419L810.5 -26.1532V-26.2872L766.98 -1.16284L767 -1.1532L766.5 -0.864532V-0.306427L766.02 -0.58548L721.5 25.1162V25.6936L721 25.4049L720.5 25.6936V25.1162L675.98 -0.58548L675.5 -0.306427V-0.864532L675 -1.1532L675.02 -1.16284L631.5 -26.2872V-26.1531L631 -26.4418L630.5 -26.1531V-26.7305L585.98 -52.4322L585.5 -52.1531V-52.7112L585 -52.9999L585.02 -53.0095L540 -78.9999L585.02 -104.99L585 -105L585.5 -105.289V-105.847L585.98 -105.568L630.15 -131.067L630 -131.153L630.5 -131.442V-131.847L630.85 -131.644L675.02 -157.144L675 -157.153ZM675.5 -52.1339L632.12 -27.0862L675.5 -2.03848V-52.1339ZM631.5 -28.0192V-78.1146L674.88 -53.0669L631.5 -28.0192ZM675.5 -53.8852L632 -78.9999L675.5 -104.115V-53.8852ZM676.5 -54.0192V-104.115L719.88 -79.067L676.5 -54.0192ZM722.12 -79.067L765.5 -104.115V-54.0192L722.12 -79.067ZM766.5 -104.115L810 -79L766.5 -53.8853V-104.115ZM767.12 -53.067L810.5 -78.1147V-28.0192L767.12 -53.067ZM809.88 -27.0862L766.5 -2.03848V-52.134L809.88 -27.0862ZM765.5 -2.03848L722 -27.1532L765.5 -52.2679V-2.03848ZM764.88 -53.0862L721.5 -28.0385V-78.134L764.88 -53.0862ZM720.5 -78.1339V-28.0385L677.12 -53.0862L720.5 -78.1339ZM676.5 -52.2679L720 -27.1532L676.5 -2.03848V-52.2679ZM720.5 -80.0385L677 -105.153L720.5 -130.268V-80.0385ZM721.5 -130.268L765 -105.153L721.5 -80.0385V-130.268ZM720.5 -132.038L677 -157.153L720.5 -182.268V-132.038ZM721.5 -182.268L765 -157.153L721.5 -132.038V-182.268ZM766.5 -156.268L810 -131.153L766.5 -106.038V-156.268ZM765.5 -106.038L722 -131.153L765.5 -156.268V-106.038ZM676.5 -156.268L720 -131.153L676.5 -106.038V-156.268ZM675.5 -106.038L632 -131.153L675.5 -156.268V-106.038ZM855 -53L811.5 -78.1147V-27.8853L855 -53ZM767 -105L810.5 -79.8853V-130.115L767 -105ZM855 -105L811.5 -130.115V-79.8853L855 -105ZM900 -79L856.5 -104.115V-53.8853L900 -79ZM812 -79L855.5 -53.8853V-104.115L812 -79ZM587 -52.9999L630.5 -27.8852V-78.1146L587 -52.9999ZM587 -105L630.5 -79.8852V-130.115L587 -105ZM675 -105L631.5 -130.115V-79.8852L675 -105ZM630 -78.9999L586.5 -104.115V-53.8852L630 -78.9999ZM542 -78.9999L585.5 -53.8852V-104.115L542 -78.9999ZM677 -1.1532L720.5 23.9615V-26.2679L677 -1.1532ZM765 -1.1532L721.5 -26.2679V23.9615L765 -1.1532Z" fill="url(#paint10_linear_1401_19105)"/>
<path fill-rule="evenodd" clip-rule="evenodd" d="M675 258.847L675.5 258.558V258L675.98 258.279L720.5 232.577V232L721 232.289L721.5 232V232.577L766.02 258.279L766.5 258V258.558L767 258.847L766.98 258.856L811.15 284.356L811.5 284.153V284.558L812 284.847L811.85 284.933L856.02 310.432L856.5 310.153V310.711L857 311L856.98 311.01L902 337L856.98 362.99L857 363L856.5 363.289V363.847L856.02 363.568L811.5 389.269V389.847L811 389.558L810.5 389.847V389.713L766.98 414.837L767 414.847L766.5 415.135V415.694L766.02 415.415L721.5 441.116V441.694L721 441.405L720.5 441.694V441.116L675.98 415.415L675.5 415.694V415.135L675 414.847L675.02 414.837L631.5 389.713V389.847L631 389.558L630.5 389.847V389.27L585.98 363.568L585.5 363.847V363.289L585 363L585.02 362.99L540 337L585.02 311.01L585 311L585.5 310.711V310.153L585.98 310.432L630.15 284.933L630 284.847L630.5 284.558V284.153L630.85 284.356L675.02 258.856L675 258.847ZM675.5 363.866L632.12 388.914L675.5 413.962V363.866ZM631.5 387.981V337.885L674.88 362.933L631.5 387.981ZM675.5 362.115L632 337L675.5 311.885V362.115ZM676.5 361.981V311.885L719.88 336.933L676.5 361.981ZM722.12 336.933L765.5 311.885V361.981L722.12 336.933ZM766.5 311.885L810 337L766.5 362.115V311.885ZM767.12 362.933L810.5 337.885V387.981L767.12 362.933ZM809.88 388.914L766.5 413.962V363.866L809.88 388.914ZM765.5 413.962L722 388.847L765.5 363.732V413.962ZM764.88 362.914L721.5 387.962V337.866L764.88 362.914ZM720.5 337.866V387.962L677.12 362.914L720.5 337.866ZM676.5 363.732L720 388.847L676.5 413.962V363.732ZM720.5 335.962L677 310.847L720.5 285.732V335.962ZM721.5 285.732L765 310.847L721.5 335.962V285.732ZM720.5 283.962L677 258.847L720.5 233.732V283.962ZM721.5 233.732L765 258.847L721.5 283.962V233.732ZM766.5 259.732L810 284.847L766.5 309.962V259.732ZM765.5 309.962L722 284.847L765.5 259.732V309.962ZM676.5 259.732L720 284.847L676.5 309.962V259.732ZM675.5 309.962L632 284.847L675.5 259.732V309.962ZM855 363L811.5 337.885V388.115L855 363ZM767 311L810.5 336.115V285.885L767 311ZM855 311L811.5 285.885V336.115L855 311ZM900 337L856.5 311.885V362.115L900 337ZM812 337L855.5 362.115V311.885L812 337ZM587 363L630.5 388.115V337.885L587 363ZM587 311L630.5 336.115V285.885L587 311ZM675 311L631.5 285.885V336.115L675 311ZM630 337L586.5 311.885V362.115L630 337ZM542 337L585.5 362.115V311.885L542 337ZM677 414.847L720.5 439.962V389.732L677 414.847ZM765 414.847L721.5 389.732V439.962L765 414.847Z" fill="url(#paint11_linear_1401_19105)"/>
<path fill-rule="evenodd" clip-rule="evenodd" d="M135 -53.1532L135.5 -53.4419V-54L135.98 -53.7209L180.5 -79.4227V-80L181 -79.7113L181.5 -80V-79.4227L226.02 -53.7209L226.5 -54V-53.4419L227 -53.1532L226.98 -53.1436L271.15 -27.6443L271.5 -27.8468V-27.4419L272 -27.1532L271.85 -27.067L316.02 -1.56775L316.5 -1.8468V-1.28867L317 -1L316.98 -0.990387L362 25.0001L316.98 50.9904L317 51L316.5 51.2887V51.8468L316.02 51.5677L271.5 77.2694V77.8468L271 77.5581L270.5 77.8468V77.7128L226.98 102.837L227 102.847L226.5 103.135V103.694L226.02 103.415L181.5 129.116V129.694L181 129.405L180.5 129.694V129.116L135.98 103.415L135.5 103.694V103.135L135 102.847L135.02 102.837L91.5 77.7128V77.8469L91 77.5582L90.5 77.8469V77.2695L45.98 51.5678L45.5 51.8469V51.2888L45 51.0001L45.02 50.9905L0 25.0001L45.02 -0.990295L45 -0.999878L45.5 -1.28857V-1.84668L45.98 -1.56763L90.15 -27.0669L90 -27.1532L90.5 -27.4419V-27.8467L90.85 -27.6443L135.02 -53.1436L135 -53.1532ZM135.5 51.8661L92.12 76.9138L135.5 101.962V51.8661ZM91.5 75.9808V25.8854L134.88 50.933L91.5 75.9808ZM135.5 50.1148L92 25.0001L135.5 -0.114624V50.1148ZM136.5 49.9808V-0.114624L179.88 24.933L136.5 49.9808ZM182.12 24.933L225.5 -0.114746V49.9808L182.12 24.933ZM226.5 -0.114746L270 25L226.5 50.1147V-0.114746ZM227.12 50.933L270.5 25.8853V75.9808L227.12 50.933ZM269.88 76.9138L226.5 101.962V51.866L269.88 76.9138ZM225.5 101.962L182 76.8468L225.5 51.7321V101.962ZM224.88 50.9138L181.5 75.9615V25.866L224.88 50.9138ZM180.5 25.8661V75.9615L137.12 50.9138L180.5 25.8661ZM136.5 51.7321L180 76.8468L136.5 101.962V51.7321ZM180.5 23.9615L137 -1.1532L180.5 -26.2679V23.9615ZM181.5 -26.2679L225 -1.1532L181.5 23.9615V-26.2679ZM180.5 -28.0385L137 -53.1532L180.5 -78.2679V-28.0385ZM181.5 -78.2679L225 -53.1532L181.5 -28.0385V-78.2679ZM226.5 -52.2679L270 -27.1532L226.5 -2.03848V-52.2679ZM225.5 -2.03848L182 -27.1532L225.5 -52.2679V-2.03848ZM136.5 -52.2679L180 -27.1532L136.5 -2.03848V-52.2679ZM135.5 -2.03848L92 -27.1532L135.5 -52.2679V-2.03848ZM315 51L271.5 25.8853V76.1147L315 51ZM227 -1L270.5 24.1147V-26.1147L227 -1ZM315 -1L271.5 -26.1147V24.1147L315 -1ZM360 25.0001L316.5 -0.114746V50.1147L360 25.0001ZM272 25L315.5 50.1147V-0.114746L272 25ZM47 51.0001L90.5 76.1148V25.8854L47 51.0001ZM47 -0.999878L90.5 24.1148V-26.1146L47 -0.999878ZM135 -0.999878L91.5 -26.1146V24.1148L135 -0.999878ZM90 25.0001L46.5 -0.114624V50.1148L90 25.0001ZM2 25.0001L45.5 50.1148V-0.114624L2 25.0001ZM137 102.847L180.5 127.962V77.7321L137 102.847ZM225 102.847L181.5 77.7321V127.962L225 102.847Z" fill="url(#paint12_linear_1401_19105)"/>
<path fill-rule="evenodd" clip-rule="evenodd" d="M315 50.8468L315.5 50.5581V50L315.98 50.2791L360.5 24.5774V24L361 24.2887L361.5 24V24.5774L406.02 50.2791L406.5 50V50.5581L407 50.8468L406.98 50.8564L451.15 76.3557L451.5 76.1532V76.5581L452 76.8468L451.85 76.933L496.02 102.432L496.5 102.153V102.711L497 103L496.98 103.01L542 129L496.98 154.99L497 155L496.5 155.289V155.847L496.02 155.568L451.5 181.269V181.847L451 181.558L450.5 181.847V181.713L406.98 206.837L407 206.847L406.5 207.135V207.694L406.02 207.415L361.5 233.116V233.694L361 233.405L360.5 233.694V233.116L315.98 207.415L315.5 207.694V207.135L315 206.847L315.02 206.837L271.5 181.713V181.847L271 181.558L270.5 181.847V181.27L225.98 155.568L225.5 155.847V155.289L225 155L225.02 154.99L180 129L225.02 103.01L225 103L225.5 102.711V102.153L225.98 102.432L270.15 76.9331L270 76.8468L270.5 76.5581V76.1533L270.85 76.3557L315.02 50.8564L315 50.8468ZM315.5 155.866L272.12 180.914L315.5 205.962V155.866ZM271.5 179.981V129.885L314.88 154.933L271.5 179.981ZM315.5 154.115L272 129L315.5 103.885V154.115ZM316.5 153.981V103.885L359.88 128.933L316.5 153.981ZM362.12 128.933L405.5 103.885V153.981L362.12 128.933ZM406.5 103.885L450 129L406.5 154.115V103.885ZM407.12 154.933L450.5 129.885V179.981L407.12 154.933ZM449.88 180.914L406.5 205.962V155.866L449.88 180.914ZM405.5 205.962L362 180.847L405.5 155.732V205.962ZM404.88 154.914L361.5 179.962V129.866L404.88 154.914ZM360.5 129.866V179.962L317.12 154.914L360.5 129.866ZM316.5 155.732L360 180.847L316.5 205.962V155.732ZM360.5 127.962L317 102.847L360.5 77.7321V127.962ZM361.5 77.7321L405 102.847L361.5 127.962V77.7321ZM360.5 75.9615L317 50.8468L360.5 25.7321V75.9615ZM361.5 25.7321L405 50.8468L361.5 75.9615V25.7321ZM406.5 51.7321L450 76.8468L406.5 101.962V51.7321ZM405.5 101.962L362 76.8468L405.5 51.7321V101.962ZM316.5 51.7321L360 76.8468L316.5 101.962V51.7321ZM315.5 101.962L272 76.8468L315.5 51.7321V101.962ZM495 155L451.5 129.885V180.115L495 155ZM407 103L450.5 128.115V77.8853L407 103ZM495 103L451.5 77.8853V128.115L495 103ZM540 129L496.5 103.885V154.115L540 129ZM452 129L495.5 154.115V103.885L452 129ZM227 155L270.5 180.115V129.885L227 155ZM227 103L270.5 128.115V77.8854L227 103ZM315 103L271.5 77.8854V128.115L315 103ZM270 129L226.5 103.885V154.115L270 129ZM182 129L225.5 154.115V103.885L182 129ZM317 206.847L360.5 231.962V181.732L317 206.847ZM405 206.847L361.5 181.732V231.962L405 206.847Z" fill="url(#paint13_linear_1401_19105)"/>
<path fill-rule="evenodd" clip-rule="evenodd" d="M-225 -53.1532L-224.5 -53.4419V-54L-224.017 -53.7209L-179.5 -79.4227V-80L-179 -79.7113L-178.5 -80V-79.4227L-133.98 -53.7209L-133.5 -54V-53.4419L-133 -53.1532L-133.02 -53.1436L-88.85 -27.6443L-88.5 -27.8468V-27.4419L-88 -27.1532L-88.15 -27.067L-43.98 -1.56775L-43.5 -1.8468V-1.28867L-43 -1L-43.02 -0.990387L2 25.0001L-43.02 50.9904L-43 51L-43.5 51.2887V51.8468L-43.98 51.5677L-88.5 77.2694V77.8468L-89 77.5581L-89.5 77.8468V77.7128L-133.02 102.837L-133 102.847L-133.5 103.135V103.694L-133.98 103.415L-178.5 129.116V129.694L-179 129.405L-179.5 129.694V129.116L-224.017 103.415L-224.5 103.694V103.135L-225 102.847L-224.983 102.837L-268.5 77.7128V77.8469L-269 77.5582L-269.5 77.8469V77.2695L-314.017 51.5678L-314.5 51.8469V51.2888L-315 51.0001L-314.983 50.9905L-360 25.0001L-314.983 -0.990295L-315 -0.999878L-314.5 -1.28857V-1.84668L-314.017 -1.56763L-269.851 -27.0669L-270 -27.1532L-269.5 -27.4419V-27.8467L-269.149 -27.6443L-224.983 -53.1436L-225 -53.1532ZM-224.5 51.8661L-267.884 76.9138L-224.5 101.962V51.8661ZM-268.5 75.9808V25.8854L-225.116 50.933L-268.5 75.9808ZM-224.5 50.1148L-268 25.0001L-224.5 -0.114624V50.1148ZM-223.5 49.9808V-0.114624L-180.116 24.933L-223.5 49.9808ZM-177.884 24.933L-134.5 -0.114746V49.9808L-177.884 24.933ZM-133.5 -0.114746L-90 25L-133.5 50.1147V-0.114746ZM-132.88 50.933L-89.5 25.8853V75.9808L-132.88 50.933ZM-90.12 76.9138L-133.5 101.962V51.866L-90.12 76.9138ZM-134.5 101.962L-178 76.8468L-134.5 51.7321V101.962ZM-135.12 50.9138L-178.5 75.9615V25.866L-135.12 50.9138ZM-179.5 25.8661V75.9615L-222.884 50.9138L-179.5 25.8661ZM-223.5 51.7321L-180 76.8468L-223.5 101.962V51.7321ZM-179.5 23.9615L-223 -1.1532L-179.5 -26.2679V23.9615ZM-178.5 -26.2679L-135 -1.1532L-178.5 23.9615V-26.2679ZM-179.5 -28.0385L-223 -53.1532L-179.5 -78.2679V-28.0385ZM-178.5 -78.2679L-135 -53.1532L-178.5 -28.0385V-78.2679ZM-133.5 -52.2679L-90 -27.1532L-133.5 -2.03848V-52.2679ZM-134.5 -2.03848L-178 -27.1532L-134.5 -52.2679V-2.03848ZM-223.5 -52.2679L-180 -27.1532L-223.5 -2.03848V-52.2679ZM-224.5 -2.03848L-268 -27.1532L-224.5 -52.2679V-2.03848ZM-45 51L-88.5 25.8853V76.1147L-45 51ZM-133 -1L-89.5 24.1147V-26.1147L-133 -1ZM-45 -1L-88.5 -26.1147V24.1147L-45 -1ZM0 25.0001L-43.5 -0.114746V50.1147L0 25.0001ZM-88 25L-44.5 50.1147V-0.114746L-88 25ZM-313 51.0001L-269.5 76.1148V25.8854L-313 51.0001ZM-313 -0.999878L-269.5 24.1148V-26.1146L-313 -0.999878ZM-225 -0.999878L-268.5 -26.1146V24.1148L-225 -0.999878ZM-270 25.0001L-313.5 -0.114624V50.1148L-270 25.0001ZM-358 25.0001L-314.5 50.1148V-0.114624L-358 25.0001ZM-223 102.847L-179.5 127.962V77.7321L-223 102.847ZM-135 102.847L-178.5 77.7321V127.962L-135 102.847Z" fill="url(#paint14_linear_1401_19105)"/>
<path fill-rule="evenodd" clip-rule="evenodd" d="M-45 50.8468L-44.5 50.5581V50L-44.02 50.2791L0.5 24.5774V24L1 24.2887L1.5 24V24.5774L46.02 50.2791L46.5 50V50.5581L47 50.8468L46.98 50.8564L91.15 76.3557L91.5 76.1532V76.5581L92 76.8468L91.85 76.933L136.02 102.432L136.5 102.153V102.711L137 103L136.98 103.01L182 129L136.98 154.99L137 155L136.5 155.289V155.847L136.02 155.568L91.5 181.269V181.847L91 181.558L90.5 181.847V181.713L46.98 206.837L47 206.847L46.5 207.135V207.694L46.02 207.415L1.5 233.116V233.694L1 233.405L0.5 233.694V233.116L-44.02 207.415L-44.5 207.694V207.135L-45 206.847L-44.98 206.837L-88.5 181.713V181.847L-89 181.558L-89.5 181.847V181.27L-134.02 155.568L-134.5 155.847V155.289L-135 155L-134.98 154.99L-180 129L-134.98 103.01L-135 103L-134.5 102.711V102.153L-134.02 102.432L-89.85 76.9331L-90 76.8468L-89.5 76.5581V76.1533L-89.15 76.3557L-44.98 50.8564L-45 50.8468ZM-44.5 155.866L-87.88 180.914L-44.5 205.962V155.866ZM-88.5 179.981V129.885L-45.12 154.933L-88.5 179.981ZM-44.5 154.115L-88 129L-44.5 103.885V154.115ZM-43.5 153.981V103.885L-0.119995 128.933L-43.5 153.981ZM2.12 128.933L45.5 103.885V153.981L2.12 128.933ZM46.5 103.885L90 129L46.5 154.115V103.885ZM47.12 154.933L90.5 129.885V179.981L47.12 154.933ZM89.88 180.914L46.5 205.962V155.866L89.88 180.914ZM45.5 205.962L2 180.847L45.5 155.732V205.962ZM44.88 154.914L1.5 179.962V129.866L44.88 154.914ZM0.5 129.866V179.962L-42.88 154.914L0.5 129.866ZM-43.5 155.732L0 180.847L-43.5 205.962V155.732ZM0.5 127.962L-43 102.847L0.5 77.7321V127.962ZM1.5 77.7321L45 102.847L1.5 127.962V77.7321ZM0.5 75.9615L-43 50.8468L0.5 25.7321V75.9615ZM1.5 25.7321L45 50.8468L1.5 75.9615V25.7321ZM46.5 51.7321L90 76.8468L46.5 101.962V51.7321ZM45.5 101.962L2 76.8468L45.5 51.7321V101.962ZM-43.5 51.7321L0 76.8468L-43.5 101.962V51.7321ZM-44.5 101.962L-88 76.8468L-44.5 51.7321V101.962ZM135 155L91.5 129.885V180.115L135 155ZM47 103L90.5 128.115V77.8853L47 103ZM135 103L91.5 77.8853V128.115L135 103ZM180 129L136.5 103.885V154.115L180 129ZM92 129L135.5 154.115V103.885L92 129ZM-133 155L-89.5 180.115V129.885L-133 155ZM-133 103L-89.5 128.115V77.8854L-133 103ZM-45 103L-88.5 77.8854V128.115L-45 103ZM-90 129L-133.5 103.885V154.115L-90 129ZM-178 129L-134.5 154.115V103.885L-178 129ZM-43 206.847L0.5 231.962V181.732L-43 206.847ZM45 206.847L1.5 181.732V231.962L45 206.847Z" fill="url(#paint15_linear_1401_19105)"/>
<path fill-rule="evenodd" clip-rule="evenodd" d="M315 -157.153L315.5 -157.442V-158L315.98 -157.721L360.5 -183.423V-184L361 -183.711L361.5 -184V-183.423L406.02 -157.721L406.5 -158V-157.442L407 -157.153L406.98 -157.144L451.15 -131.644L451.5 -131.847V-131.442L452 -131.153L451.85 -131.067L496.02 -105.568L496.5 -105.847V-105.289L497 -105L496.98 -104.99L542 -78.9999L496.98 -53.0096L497 -53L496.5 -52.7113V-52.1532L496.02 -52.4323L451.5 -26.7306V-26.1532L451 -26.4419L450.5 -26.1532V-26.2872L406.98 -1.16284L407 -1.1532L406.5 -0.864532V-0.306427L406.02 -0.58548L361.5 25.1162V25.6936L361 25.4049L360.5 25.6936V25.1162L315.98 -0.58548L315.5 -0.306427V-0.864532L315 -1.1532L315.02 -1.16284L271.5 -26.2872V-26.1531L271 -26.4418L270.5 -26.1531V-26.7305L225.98 -52.4322L225.5 -52.1531V-52.7112L225 -52.9999L225.02 -53.0095L180 -78.9999L225.02 -104.99L225 -105L225.5 -105.289V-105.847L225.98 -105.568L270.15 -131.067L270 -131.153L270.5 -131.442V-131.847L270.85 -131.644L315.02 -157.144L315 -157.153ZM315.5 -52.1339L272.12 -27.0862L315.5 -2.03848V-52.1339ZM271.5 -28.0192V-78.1146L314.88 -53.0669L271.5 -28.0192ZM315.5 -53.8852L272 -78.9999L315.5 -104.115V-53.8852ZM316.5 -54.0192V-104.115L359.88 -79.067L316.5 -54.0192ZM362.12 -79.067L405.5 -104.115V-54.0192L362.12 -79.067ZM406.5 -104.115L450 -79L406.5 -53.8853V-104.115ZM407.12 -53.067L450.5 -78.1147V-28.0192L407.12 -53.067ZM449.88 -27.0862L406.5 -2.03848V-52.134L449.88 -27.0862ZM405.5 -2.03848L362 -27.1532L405.5 -52.2679V-2.03848ZM404.88 -53.0862L361.5 -28.0385V-78.134L404.88 -53.0862ZM360.5 -78.1339V-28.0385L317.12 -53.0862L360.5 -78.1339ZM316.5 -52.2679L360 -27.1532L316.5 -2.03848V-52.2679ZM360.5 -80.0385L317 -105.153L360.5 -130.268V-80.0385ZM361.5 -130.268L405 -105.153L361.5 -80.0385V-130.268ZM360.5 -132.038L317 -157.153L360.5 -182.268V-132.038ZM361.5 -182.268L405 -157.153L361.5 -132.038V-182.268ZM406.5 -156.268L450 -131.153L406.5 -106.038V-156.268ZM405.5 -106.038L362 -131.153L405.5 -156.268V-106.038ZM316.5 -156.268L360 -131.153L316.5 -106.038V-156.268ZM315.5 -106.038L272 -131.153L315.5 -156.268V-106.038ZM495 -53L451.5 -78.1147V-27.8853L495 -53ZM407 -105L450.5 -79.8853V-130.115L407 -105ZM495 -105L451.5 -130.115V-79.8853L495 -105ZM540 -78.9999L496.5 -104.115V-53.8853L540 -78.9999ZM452 -79L495.5 -53.8853V-104.115L452 -79ZM227 -52.9999L270.5 -27.8852V-78.1146L227 -52.9999ZM227 -105L270.5 -79.8852V-130.115L227 -105ZM315 -105L271.5 -130.115V-79.8852L315 -105ZM270 -78.9999L226.5 -104.115V-53.8852L270 -78.9999ZM182 -78.9999L225.5 -53.8852V-104.115L182 -78.9999ZM317 -1.1532L360.5 23.9615V-26.2679L317 -1.1532ZM405 -1.1532L361.5 -26.2679V23.9615L405 -1.1532Z" fill="url(#paint16_linear_1401_19105)"/>
<path fill-rule="evenodd" clip-rule="evenodd" d="M-45 -157.153L-44.5 -157.442V-158L-44.02 -157.721L0.5 -183.423V-184L1 -183.711L1.5 -184V-183.423L46.02 -157.721L46.5 -158V-157.442L47 -157.153L46.98 -157.144L91.15 -131.644L91.5 -131.847V-131.442L92 -131.153L91.85 -131.067L136.02 -105.568L136.5 -105.847V-105.289L137 -105L136.98 -104.99L182 -78.9999L136.98 -53.0096L137 -53L136.5 -52.7113V-52.1532L136.02 -52.4323L91.5 -26.7306V-26.1532L91 -26.4419L90.5 -26.1532V-26.2872L46.98 -1.16284L47 -1.1532L46.5 -0.864532V-0.306427L46.02 -0.58548L1.5 25.1162V25.6936L1 25.4049L0.5 25.6936V25.1162L-44.02 -0.58548L-44.5 -0.306427V-0.864532L-45 -1.1532L-44.98 -1.16284L-88.5 -26.2872V-26.1531L-89 -26.4418L-89.5 -26.1531V-26.7305L-134.02 -52.4322L-134.5 -52.1531V-52.7112L-135 -52.9999L-134.98 -53.0095L-180 -78.9999L-134.98 -104.99L-135 -105L-134.5 -105.289V-105.847L-134.02 -105.568L-89.85 -131.067L-90 -131.153L-89.5 -131.442V-131.847L-89.15 -131.644L-44.98 -157.144L-45 -157.153ZM-44.5 -52.1339L-87.88 -27.0862L-44.5 -2.03848V-52.1339ZM-88.5 -28.0192V-78.1146L-45.12 -53.0669L-88.5 -28.0192ZM-44.5 -53.8852L-88 -78.9999L-44.5 -104.115V-53.8852ZM-43.5 -54.0192V-104.115L-0.119995 -79.067L-43.5 -54.0192ZM2.12 -79.067L45.5 -104.115V-54.0192L2.12 -79.067ZM46.5 -104.115L90 -79L46.5 -53.8853V-104.115ZM47.12 -53.067L90.5 -78.1147V-28.0192L47.12 -53.067ZM89.88 -27.0862L46.5 -2.03848V-52.134L89.88 -27.0862ZM45.5 -2.03848L2 -27.1532L45.5 -52.2679V-2.03848ZM44.88 -53.0862L1.5 -28.0385V-78.134L44.88 -53.0862ZM0.5 -78.1339V-28.0385L-42.88 -53.0862L0.5 -78.1339ZM-43.5 -52.2679L0 -27.1532L-43.5 -2.03848V-52.2679ZM0.5 -80.0385L-43 -105.153L0.5 -130.268V-80.0385ZM1.5 -130.268L45 -105.153L1.5 -80.0385V-130.268ZM0.5 -132.038L-43 -157.153L0.5 -182.268V-132.038ZM1.5 -182.268L45 -157.153L1.5 -132.038V-182.268ZM46.5 -156.268L90 -131.153L46.5 -106.038V-156.268ZM45.5 -106.038L2 -131.153L45.5 -156.268V-106.038ZM-43.5 -156.268L0 -131.153L-43.5 -106.038V-156.268ZM-44.5 -106.038L-88 -131.153L-44.5 -156.268V-106.038ZM135 -53L91.5 -78.1147V-27.8853L135 -53ZM47 -105L90.5 -79.8853V-130.115L47 -105ZM135 -105L91.5 -130.115V-79.8853L135 -105ZM180 -78.9999L136.5 -104.115V-53.8853L180 -78.9999ZM92 -79L135.5 -53.8853V-104.115L92 -79ZM-133 -52.9999L-89.5 -27.8852V-78.1146L-133 -52.9999ZM-133 -105L-89.5 -79.8852V-130.115L-133 -105ZM-45 -105L-88.5 -130.115V-79.8852L-45 -105ZM-90 -78.9999L-133.5 -104.115V-53.8852L-90 -78.9999ZM-178 -78.9999L-134.5 -53.8852V-104.115L-178 -78.9999ZM-43 -1.1532L0.5 23.9615V-26.2679L-43 -1.1532ZM45 -1.1532L1.5 -26.2679V23.9615L45 -1.1532Z" fill="url(#paint17_linear_1401_19105)"/>
<path fill-rule="evenodd" clip-rule="evenodd" d="M855 154.847L855.5 154.558V154L855.98 154.279L900.5 128.577V128L901 128.289L901.5 128V128.577L946.02 154.279L946.5 154V154.558L947 154.847L946.98 154.856L991.15 180.356L991.5 180.153V180.558L992 180.847L991.85 180.933L1036.02 206.432L1036.5 206.153V206.711L1037 207L1036.98 207.01L1082 233L1036.98 258.99L1037 259L1036.5 259.289V259.847L1036.02 259.568L991.5 285.269V285.847L991 285.558L990.5 285.847V285.713L946.98 310.837L947 310.847L946.5 311.135V311.694L946.02 311.415L901.5 337.116V337.694L901 337.405L900.5 337.694V337.116L855.98 311.415L855.5 311.694V311.135L855 310.847L855.02 310.837L811.5 285.713V285.847L811 285.558L810.5 285.847V285.27L765.98 259.568L765.5 259.847V259.289L765 259L765.02 258.99L720 233L765.02 207.01L765 207L765.5 206.711V206.153L765.98 206.432L810.15 180.933L810 180.847L810.5 180.558V180.153L810.85 180.356L855.02 154.856L855 154.847ZM855.5 259.866L812.12 284.914L855.5 309.962V259.866ZM811.5 283.981V233.885L854.88 258.933L811.5 283.981ZM855.5 258.115L812 233L855.5 207.885V258.115ZM856.5 257.981V207.885L899.88 232.933L856.5 257.981ZM902.12 232.933L945.5 207.885V257.981L902.12 232.933ZM946.5 207.885L990 233L946.5 258.115V207.885ZM947.12 258.933L990.5 233.885V283.981L947.12 258.933ZM989.88 284.914L946.5 309.962V259.866L989.88 284.914ZM945.5 309.962L902 284.847L945.5 259.732V309.962ZM944.88 258.914L901.5 283.962V233.866L944.88 258.914ZM900.5 233.866V283.962L857.12 258.914L900.5 233.866ZM856.5 259.732L900 284.847L856.5 309.962V259.732ZM900.5 231.962L857 206.847L900.5 181.732V231.962ZM901.5 181.732L945 206.847L901.5 231.962V181.732ZM900.5 179.962L857 154.847L900.5 129.732V179.962ZM901.5 129.732L945 154.847L901.5 179.962V129.732ZM946.5 155.732L990 180.847L946.5 205.962V155.732ZM945.5 205.962L902 180.847L945.5 155.732V205.962ZM856.5 155.732L900 180.847L856.5 205.962V155.732ZM855.5 205.962L812 180.847L855.5 155.732V205.962ZM1035 259L991.5 233.885V284.115L1035 259ZM947 207L990.5 232.115V181.885L947 207ZM1035 207L991.5 181.885V232.115L1035 207ZM1080 233L1036.5 207.885V258.115L1080 233ZM992 233L1035.5 258.115V207.885L992 233ZM767 259L810.5 284.115V233.885L767 259ZM767 207L810.5 232.115V181.885L767 207ZM855 207L811.5 181.885V232.115L855 207ZM810 233L766.5 207.885V258.115L810 233ZM722 233L765.5 258.115V207.885L722 233ZM857 310.847L900.5 335.962V285.732L857 310.847ZM945 310.847L901.5 285.732V335.962L945 310.847Z" fill="url(#paint18_linear_1401_19105)"/>
<path fill-rule="evenodd" clip-rule="evenodd" d="M855 -53.1532L855.5 -53.4419V-54L855.98 -53.7209L900.5 -79.4227V-80L901 -79.7113L901.5 -80V-79.4227L946.02 -53.7209L946.5 -54V-53.4419L947 -53.1532L946.98 -53.1436L991.15 -27.6443L991.5 -27.8468V-27.4419L992 -27.1532L991.85 -27.067L1036.02 -1.56775L1036.5 -1.8468V-1.28867L1037 -1L1036.98 -0.990387L1082 25L1036.98 50.9904L1037 51L1036.5 51.2887V51.8468L1036.02 51.5677L991.5 77.2694V77.8468L991 77.5581L990.5 77.8468V77.7128L946.98 102.837L947 102.847L946.5 103.135V103.694L946.02 103.415L901.5 129.116V129.694L901 129.405L900.5 129.694V129.116L855.98 103.415L855.5 103.694V103.135L855 102.847L855.02 102.837L811.5 77.7128V77.8469L811 77.5582L810.5 77.8469V77.2695L765.98 51.5678L765.5 51.8469V51.2888L765 51.0001L765.02 50.9905L720 25L765.02 -0.990295L765 -0.999878L765.5 -1.28857V-1.84668L765.98 -1.56763L810.15 -27.0669L810 -27.1532L810.5 -27.4419V-27.8467L810.85 -27.6443L855.02 -53.1436L855 -53.1532ZM855.5 51.8661L812.12 76.9138L855.5 101.962V51.8661ZM811.5 75.9808V25.8854L854.88 50.933L811.5 75.9808ZM855.5 50.1148L812 25.0001L855.5 -0.114624V50.1148ZM856.5 49.9808V-0.114624L899.88 24.933L856.5 49.9808ZM902.12 24.933L945.5 -0.114746V49.9808L902.12 24.933ZM946.5 -0.114746L990 25L946.5 50.1147V-0.114746ZM947.12 50.933L990.5 25.8853V75.9808L947.12 50.933ZM989.88 76.9138L946.5 101.962V51.866L989.88 76.9138ZM945.5 101.962L902 76.8468L945.5 51.7321V101.962ZM944.88 50.9138L901.5 75.9615V25.866L944.88 50.9138ZM900.5 25.8661V75.9615L857.12 50.9138L900.5 25.8661ZM856.5 51.7321L900 76.8468L856.5 101.962V51.7321ZM900.5 23.9615L857 -1.1532L900.5 -26.2679V23.9615ZM901.5 -26.2679L945 -1.1532L901.5 23.9615V-26.2679ZM900.5 -28.0385L857 -53.1532L900.5 -78.2679V-28.0385ZM901.5 -78.2679L945 -53.1532L901.5 -28.0385V-78.2679ZM946.5 -52.2679L990 -27.1532L946.5 -2.03848V-52.2679ZM945.5 -2.03848L902 -27.1532L945.5 -52.2679V-2.03848ZM856.5 -52.2679L900 -27.1532L856.5 -2.03848V-52.2679ZM855.5 -2.03848L812 -27.1532L855.5 -52.2679V-2.03848ZM1035 51L991.5 25.8853V76.1147L1035 51ZM947 -1L990.5 24.1147V-26.1147L947 -1ZM1035 -1L991.5 -26.1147V24.1147L1035 -1ZM1080 25L1036.5 -0.114746V50.1147L1080 25ZM992 25L1035.5 50.1147V-0.114746L992 25ZM767 51.0001L810.5 76.1148V25.8854L767 51.0001ZM767 -0.999878L810.5 24.1148V-26.1146L767 -0.999878ZM855 -0.999878L811.5 -26.1146V24.1148L855 -0.999878ZM810 25.0001L766.5 -0.114624V50.1148L810 25.0001ZM722 25L765.5 50.1148V-0.114624L722 25ZM857 102.847L900.5 127.962V77.7321L857 102.847ZM945 102.847L901.5 77.7321V127.962L945 102.847Z" fill="url(#paint19_linear_1401_19105)"/>
<path fill-rule="evenodd" clip-rule="evenodd" d="M135 362.847L135.5 362.558V362L135.98 362.279L180.5 336.577V336L181 336.289L181.5 336V336.577L226.02 362.279L226.5 362V362.558L227 362.847L226.98 362.856L271.15 388.356L271.5 388.153V388.558L272 388.847L271.85 388.933L316.02 414.432L316.5 414.153V414.711L317 415L316.98 415.01L362 441L316.98 466.99L317 467L316.5 467.289V467.847L316.02 467.568L271.5 493.269V493.847L271 493.558L270.5 493.847V493.713L226.98 518.837L227 518.847L226.5 519.135V519.694L226.02 519.415L181.5 545.116V545.694L181 545.405L180.5 545.694V545.116L135.98 519.415L135.5 519.694V519.135L135 518.847L135.02 518.837L91.5 493.713V493.847L91 493.558L90.5 493.847V493.27L45.98 467.568L45.5 467.847V467.289L45 467L45.02 466.99L0 441L45.02 415.01L45 415L45.5 414.711V414.153L45.98 414.432L90.15 388.933L90 388.847L90.5 388.558V388.153L90.85 388.356L135.02 362.856L135 362.847ZM135.5 467.866L92.12 492.914L135.5 517.962V467.866ZM91.5 491.981V441.885L134.88 466.933L91.5 491.981ZM135.5 466.115L92 441L135.5 415.885V466.115ZM136.5 465.981V415.885L179.88 440.933L136.5 465.981ZM182.12 440.933L225.5 415.885V465.981L182.12 440.933ZM226.5 415.885L270 441L226.5 466.115V415.885ZM227.12 466.933L270.5 441.885V491.981L227.12 466.933ZM269.88 492.914L226.5 517.962V467.866L269.88 492.914ZM225.5 517.962L182 492.847L225.5 467.732V517.962ZM224.88 466.914L181.5 491.962V441.866L224.88 466.914ZM180.5 441.866V491.962L137.12 466.914L180.5 441.866ZM136.5 467.732L180 492.847L136.5 517.962V467.732ZM180.5 439.962L137 414.847L180.5 389.732V439.962ZM181.5 389.732L225 414.847L181.5 439.962V389.732ZM180.5 387.962L137 362.847L180.5 337.732V387.962ZM181.5 337.732L225 362.847L181.5 387.962V337.732ZM226.5 363.732L270 388.847L226.5 413.962V363.732ZM225.5 413.962L182 388.847L225.5 363.732V413.962ZM136.5 363.732L180 388.847L136.5 413.962V363.732ZM135.5 413.962L92 388.847L135.5 363.732V413.962ZM315 467L271.5 441.885V492.115L315 467ZM227 415L270.5 440.115V389.885L227 415ZM315 415L271.5 389.885V440.115L315 415ZM360 441L316.5 415.885V466.115L360 441ZM272 441L315.5 466.115V415.885L272 441ZM47 467L90.5 492.115V441.885L47 467ZM47 415L90.5 440.115V389.885L47 415ZM135 415L91.5 389.885V440.115L135 415ZM90 441L46.5 415.885V466.115L90 441ZM2 441L45.5 466.115V415.885L2 441ZM137 518.847L180.5 543.962V493.732L137 518.847ZM225 518.847L181.5 493.732V543.962L225 518.847Z" fill="url(#paint20_linear_1401_19105)"/>
<path fill-rule="evenodd" clip-rule="evenodd" d="M-225 362.847L-224.5 362.558V362L-224.017 362.279L-179.5 336.577V336L-179 336.289L-178.5 336V336.577L-133.98 362.279L-133.5 362V362.558L-133 362.847L-133.02 362.856L-88.85 388.356L-88.5 388.153V388.558L-88 388.847L-88.15 388.933L-43.98 414.432L-43.5 414.153V414.711L-43 415L-43.02 415.01L2 441L-43.02 466.99L-43 467L-43.5 467.289V467.847L-43.98 467.568L-88.5 493.269V493.847L-89 493.558L-89.5 493.847V493.713L-133.02 518.837L-133 518.847L-133.5 519.135V519.694L-133.98 519.415L-178.5 545.116V545.694L-179 545.405L-179.5 545.694V545.116L-224.017 519.415L-224.5 519.694V519.135L-225 518.847L-224.983 518.837L-268.5 493.713V493.847L-269 493.558L-269.5 493.847V493.27L-314.017 467.568L-314.5 467.847V467.289L-315 467L-314.983 466.99L-360 441L-314.983 415.01L-315 415L-314.5 414.711V414.153L-314.017 414.432L-269.851 388.933L-270 388.847L-269.5 388.558V388.153L-269.149 388.356L-224.983 362.856L-225 362.847ZM-224.5 467.866L-267.884 492.914L-224.5 517.962V467.866ZM-268.5 491.981V441.885L-225.116 466.933L-268.5 491.981ZM-224.5 466.115L-268 441L-224.5 415.885V466.115ZM-223.5 465.981V415.885L-180.116 440.933L-223.5 465.981ZM-177.884 440.933L-134.5 415.885V465.981L-177.884 440.933ZM-133.5 415.885L-90 441L-133.5 466.115V415.885ZM-132.88 466.933L-89.5 441.885V491.981L-132.88 466.933ZM-90.12 492.914L-133.5 517.962V467.866L-90.12 492.914ZM-134.5 517.962L-178 492.847L-134.5 467.732V517.962ZM-135.12 466.914L-178.5 491.962V441.866L-135.12 466.914ZM-179.5 441.866V491.962L-222.884 466.914L-179.5 441.866ZM-223.5 467.732L-180 492.847L-223.5 517.962V467.732ZM-179.5 439.962L-223 414.847L-179.5 389.732V439.962ZM-178.5 389.732L-135 414.847L-178.5 439.962V389.732ZM-179.5 387.962L-223 362.847L-179.5 337.732V387.962ZM-178.5 337.732L-135 362.847L-178.5 387.962V337.732ZM-133.5 363.732L-90 388.847L-133.5 413.962V363.732ZM-134.5 413.962L-178 388.847L-134.5 363.732V413.962ZM-223.5 363.732L-180 388.847L-223.5 413.962V363.732ZM-224.5 413.962L-268 388.847L-224.5 363.732V413.962ZM-45 467L-88.5 441.885V492.115L-45 467ZM-133 415L-89.5 440.115V389.885L-133 415ZM-45 415L-88.5 389.885V440.115L-45 415ZM0 441L-43.5 415.885V466.115L0 441ZM-88 441L-44.5 466.115V415.885L-88 441ZM-313 467L-269.5 492.115V441.885L-313 467ZM-313 415L-269.5 440.115V389.885L-313 415ZM-225 415L-268.5 389.885V440.115L-225 415ZM-270 441L-313.5 415.885V466.115L-270 441ZM-358 441L-314.5 466.115V415.885L-358 441ZM-223 518.847L-179.5 543.962V493.732L-223 518.847ZM-135 518.847L-178.5 493.732V543.962L-135 518.847Z" fill="url(#paint21_linear_1401_19105)"/>
<path fill-rule="evenodd" clip-rule="evenodd" d="M495 362.847L495.5 362.558V362L495.98 362.279L540.5 336.577V336L541 336.289L541.5 336V336.577L586.02 362.279L586.5 362V362.558L587 362.847L586.98 362.856L631.15 388.356L631.5 388.153V388.558L632 388.847L631.85 388.933L676.02 414.432L676.5 414.153V414.711L677 415L676.98 415.01L722 441L676.98 466.99L677 467L676.5 467.289V467.847L676.02 467.568L631.5 493.269V493.847L631 493.558L630.5 493.847V493.713L586.98 518.837L587 518.847L586.5 519.135V519.694L586.02 519.415L541.5 545.116V545.694L541 545.405L540.5 545.694V545.116L495.98 519.415L495.5 519.694V519.135L495 518.847L495.02 518.837L451.5 493.713V493.847L451 493.558L450.5 493.847V493.27L405.98 467.568L405.5 467.847V467.289L405 467L405.02 466.99L360 441L405.02 415.01L405 415L405.5 414.711V414.153L405.98 414.432L450.15 388.933L450 388.847L450.5 388.558V388.153L450.85 388.356L495.02 362.856L495 362.847ZM495.5 467.866L452.12 492.914L495.5 517.962V467.866ZM451.5 491.981V441.885L494.88 466.933L451.5 491.981ZM495.5 466.115L452 441L495.5 415.885V466.115ZM496.5 465.981V415.885L539.88 440.933L496.5 465.981ZM542.12 440.933L585.5 415.885V465.981L542.12 440.933ZM586.5 415.885L630 441L586.5 466.115V415.885ZM587.12 466.933L630.5 441.885V491.981L587.12 466.933ZM629.88 492.914L586.5 517.962V467.866L629.88 492.914ZM585.5 517.962L542 492.847L585.5 467.732V517.962ZM584.88 466.914L541.5 491.962V441.866L584.88 466.914ZM540.5 441.866V491.962L497.12 466.914L540.5 441.866ZM496.5 467.732L540 492.847L496.5 517.962V467.732ZM540.5 439.962L497 414.847L540.5 389.732V439.962ZM541.5 389.732L585 414.847L541.5 439.962V389.732ZM540.5 387.962L497 362.847L540.5 337.732V387.962ZM541.5 337.732L585 362.847L541.5 387.962V337.732ZM586.5 363.732L630 388.847L586.5 413.962V363.732ZM585.5 413.962L542 388.847L585.5 363.732V413.962ZM496.5 363.732L540 388.847L496.5 413.962V363.732ZM495.5 413.962L452 388.847L495.5 363.732V413.962ZM675 467L631.5 441.885V492.115L675 467ZM587 415L630.5 440.115V389.885L587 415ZM675 415L631.5 389.885V440.115L675 415ZM720 441L676.5 415.885V466.115L720 441ZM632 441L675.5 466.115V415.885L632 441ZM407 467L450.5 492.115V441.885L407 467ZM407 415L450.5 440.115V389.885L407 415ZM495 415L451.5 389.885V440.115L495 415ZM450 441L406.5 415.885V466.115L450 441ZM362 441L405.5 466.115V415.885L362 441ZM497 518.847L540.5 543.962V493.732L497 518.847ZM585 518.847L541.5 493.732V543.962L585 518.847Z" fill="url(#paint22_linear_1401_19105)"/>
<path fill-rule="evenodd" clip-rule="evenodd" d="M855 362.847L855.5 362.558V362L855.98 362.279L900.5 336.577V336L901 336.289L901.5 336V336.577L946.02 362.279L946.5 362V362.558L947 362.847L946.98 362.856L991.15 388.356L991.5 388.153V388.558L992 388.847L991.85 388.933L1036.02 414.432L1036.5 414.153V414.711L1037 415L1036.98 415.01L1082 441L1036.98 466.99L1037 467L1036.5 467.289V467.847L1036.02 467.568L991.5 493.269V493.847L991 493.558L990.5 493.847V493.713L946.98 518.837L947 518.847L946.5 519.135V519.694L946.02 519.415L901.5 545.116V545.694L901 545.405L900.5 545.694V545.116L855.98 519.415L855.5 519.694V519.135L855 518.847L855.02 518.837L811.5 493.713V493.847L811 493.558L810.5 493.847V493.27L765.98 467.568L765.5 467.847V467.289L765 467L765.02 466.99L720 441L765.02 415.01L765 415L765.5 414.711V414.153L765.98 414.432L810.15 388.933L810 388.847L810.5 388.558V388.153L810.85 388.356L855.02 362.856L855 362.847ZM855.5 467.866L812.12 492.914L855.5 517.962V467.866ZM811.5 491.981V441.885L854.88 466.933L811.5 491.981ZM855.5 466.115L812 441L855.5 415.885V466.115ZM856.5 465.981V415.885L899.88 440.933L856.5 465.981ZM902.12 440.933L945.5 415.885V465.981L902.12 440.933ZM946.5 415.885L990 441L946.5 466.115V415.885ZM947.12 466.933L990.5 441.885V491.981L947.12 466.933ZM989.88 492.914L946.5 517.962V467.866L989.88 492.914ZM945.5 517.962L902 492.847L945.5 467.732V517.962ZM944.88 466.914L901.5 491.962V441.866L944.88 466.914ZM900.5 441.866V491.962L857.12 466.914L900.5 441.866ZM856.5 467.732L900 492.847L856.5 517.962V467.732ZM900.5 439.962L857 414.847L900.5 389.732V439.962ZM901.5 389.732L945 414.847L901.5 439.962V389.732ZM900.5 387.962L857 362.847L900.5 337.732V387.962ZM901.5 337.732L945 362.847L901.5 387.962V337.732ZM946.5 363.732L990 388.847L946.5 413.962V363.732ZM945.5 413.962L902 388.847L945.5 363.732V413.962ZM856.5 363.732L900 388.847L856.5 413.962V363.732ZM855.5 413.962L812 388.847L855.5 363.732V413.962ZM1035 467L991.5 441.885V492.115L1035 467ZM947 415L990.5 440.115V389.885L947 415ZM1035 415L991.5 389.885V440.115L1035 415ZM1080 441L1036.5 415.885V466.115L1080 441ZM992 441L1035.5 466.115V415.885L992 441ZM767 467L810.5 492.115V441.885L767 467ZM767 415L810.5 440.115V389.885L767 415ZM855 415L811.5 389.885V440.115L855 415ZM810 441L766.5 415.885V466.115L810 441ZM722 441L765.5 466.115V415.885L722 441ZM857 518.847L900.5 543.962V493.732L857 518.847ZM945 518.847L901.5 493.732V543.962L945 518.847Z" fill="url(#paint23_linear_1401_19105)"/>
</g>
<defs>
<linearGradient id="paint0_linear_1401_19105" x1="664.29" y1="-69.3035" x2="-1329.76" y2="830.464" gradientUnits="userSpaceOnUse">
<stop stop-color="#008ACC" stop-opacity="0.2"/>
<stop offset="0.141029" stop-color="#008ACC" stop-opacity="0"/>
<stop offset="0.625" stop-color="#008ACC" stop-opacity="0"/>
<stop offset="1" stop-color="white"/>
</linearGradient>
<linearGradient id="paint1_linear_1401_19105" x1="664.29" y1="-69.3035" x2="-1329.76" y2="830.464" gradientUnits="userSpaceOnUse">
<stop stop-color="#008ACC" stop-opacity="0.2"/>
<stop offset="0.141029" stop-color="#008ACC" stop-opacity="0"/>
<stop offset="0.625" stop-color="#008ACC" stop-opacity="0"/>
<stop offset="1" stop-color="white"/>
</linearGradient>
<linearGradient id="paint2_linear_1401_19105" x1="664.29" y1="-69.3035" x2="-1329.76" y2="830.464" gradientUnits="userSpaceOnUse">
<stop stop-color="#008ACC" stop-opacity="0.2"/>
<stop offset="0.141029" stop-color="#008ACC" stop-opacity="0"/>
<stop offset="0.625" stop-color="#008ACC" stop-opacity="0"/>
<stop offset="1" stop-color="white"/>
</linearGradient>
<linearGradient id="paint3_linear_1401_19105" x1="664.29" y1="-69.3036" x2="-1329.76" y2="830.464" gradientUnits="userSpaceOnUse">
<stop stop-color="#008ACC" stop-opacity="0.2"/>
<stop offset="0.141029" stop-color="#008ACC" stop-opacity="0"/>
<stop offset="0.625" stop-color="#008ACC" stop-opacity="0"/>
<stop offset="1" stop-color="white"/>
</linearGradient>
<linearGradient id="paint4_linear_1401_19105" x1="664.29" y1="-69.3035" x2="-1329.76" y2="830.464" gradientUnits="userSpaceOnUse">
<stop stop-color="#008ACC" stop-opacity="0.2"/>
<stop offset="0.141029" stop-color="#008ACC" stop-opacity="0"/>
<stop offset="0.625" stop-color="#008ACC" stop-opacity="0"/>
<stop offset="1" stop-color="white"/>
</linearGradient>
<linearGradient id="paint5_linear_1401_19105" x1="664.29" y1="-69.3036" x2="-1329.76" y2="830.464" gradientUnits="userSpaceOnUse">
<stop stop-color="#008ACC" stop-opacity="0.2"/>
<stop offset="0.141029" stop-color="#008ACC" stop-opacity="0"/>
<stop offset="0.625" stop-color="#008ACC" stop-opacity="0"/>
<stop offset="1" stop-color="white"/>
</linearGradient>
<linearGradient id="paint6_linear_1401_19105" x1="664.29" y1="-69.3036" x2="-1329.76" y2="830.464" gradientUnits="userSpaceOnUse">
<stop stop-color="#008ACC" stop-opacity="0.2"/>
<stop offset="0.141029" stop-color="#008ACC" stop-opacity="0"/>
<stop offset="0.625" stop-color="#008ACC" stop-opacity="0"/>
<stop offset="1" stop-color="white"/>
</linearGradient>
<linearGradient id="paint7_linear_1401_19105" x1="664.29" y1="-69.3036" x2="-1329.76" y2="830.464" gradientUnits="userSpaceOnUse">
<stop stop-color="#008ACC" stop-opacity="0.2"/>
<stop offset="0.141029" stop-color="#008ACC" stop-opacity="0"/>
<stop offset="0.625" stop-color="#008ACC" stop-opacity="0"/>
<stop offset="1" stop-color="white"/>
</linearGradient>
<linearGradient id="paint8_linear_1401_19105" x1="664.29" y1="-69.3036" x2="-1329.76" y2="830.464" gradientUnits="userSpaceOnUse">
<stop stop-color="#008ACC" stop-opacity="0.2"/>
<stop offset="0.141029" stop-color="#008ACC" stop-opacity="0"/>
<stop offset="0.625" stop-color="#008ACC" stop-opacity="0"/>
<stop offset="1" stop-color="white"/>
</linearGradient>
<linearGradient id="paint9_linear_1401_19105" x1="664.29" y1="-69.3036" x2="-1329.76" y2="830.464" gradientUnits="userSpaceOnUse">
<stop stop-color="#008ACC" stop-opacity="0.2"/>
<stop offset="0.141029" stop-color="#008ACC" stop-opacity="0"/>
<stop offset="0.625" stop-color="#008ACC" stop-opacity="0"/>
<stop offset="1" stop-color="white"/>
</linearGradient>
<linearGradient id="paint10_linear_1401_19105" x1="664.29" y1="-69.3036" x2="-1329.76" y2="830.464" gradientUnits="userSpaceOnUse">
<stop stop-color="#008ACC" stop-opacity="0.2"/>
<stop offset="0.141029" stop-color="#008ACC" stop-opacity="0"/>
<stop offset="0.625" stop-color="#008ACC" stop-opacity="0"/>
<stop offset="1" stop-color="white"/>
</linearGradient>
<linearGradient id="paint11_linear_1401_19105" x1="664.29" y1="-69.3036" x2="-1329.76" y2="830.464" gradientUnits="userSpaceOnUse">
<stop stop-color="#008ACC" stop-opacity="0.2"/>
<stop offset="0.141029" stop-color="#008ACC" stop-opacity="0"/>
<stop offset="0.625" stop-color="#008ACC" stop-opacity="0"/>
<stop offset="1" stop-color="white"/>
</linearGradient>
<linearGradient id="paint12_linear_1401_19105" x1="664.29" y1="-69.3036" x2="-1329.76" y2="830.464" gradientUnits="userSpaceOnUse">
<stop stop-color="#008ACC" stop-opacity="0.2"/>
<stop offset="0.141029" stop-color="#008ACC" stop-opacity="0"/>
<stop offset="0.625" stop-color="#008ACC" stop-opacity="0"/>
<stop offset="1" stop-color="white"/>
</linearGradient>
<linearGradient id="paint13_linear_1401_19105" x1="664.29" y1="-69.3036" x2="-1329.76" y2="830.464" gradientUnits="userSpaceOnUse">
<stop stop-color="#008ACC" stop-opacity="0.2"/>
<stop offset="0.141029" stop-color="#008ACC" stop-opacity="0"/>
<stop offset="0.625" stop-color="#008ACC" stop-opacity="0"/>
<stop offset="1" stop-color="white"/>
</linearGradient>
<linearGradient id="paint14_linear_1401_19105" x1="664.29" y1="-69.3036" x2="-1329.76" y2="830.464" gradientUnits="userSpaceOnUse">
<stop stop-color="#008ACC" stop-opacity="0.2"/>
<stop offset="0.141029" stop-color="#008ACC" stop-opacity="0"/>
<stop offset="0.625" stop-color="#008ACC" stop-opacity="0"/>
<stop offset="1" stop-color="white"/>
</linearGradient>
<linearGradient id="paint15_linear_1401_19105" x1="664.29" y1="-69.3036" x2="-1329.76" y2="830.464" gradientUnits="userSpaceOnUse">
<stop stop-color="#008ACC" stop-opacity="0.2"/>
<stop offset="0.141029" stop-color="#008ACC" stop-opacity="0"/>
<stop offset="0.625" stop-color="#008ACC" stop-opacity="0"/>
<stop offset="1" stop-color="white"/>
</linearGradient>
<linearGradient id="paint16_linear_1401_19105" x1="664.29" y1="-69.3036" x2="-1329.76" y2="830.464" gradientUnits="userSpaceOnUse">
<stop stop-color="#008ACC" stop-opacity="0.2"/>
<stop offset="0.141029" stop-color="#008ACC" stop-opacity="0"/>
<stop offset="0.625" stop-color="#008ACC" stop-opacity="0"/>
<stop offset="1" stop-color="white"/>
</linearGradient>
<linearGradient id="paint17_linear_1401_19105" x1="664.29" y1="-69.3036" x2="-1329.76" y2="830.464" gradientUnits="userSpaceOnUse">
<stop stop-color="#008ACC" stop-opacity="0.2"/>
<stop offset="0.141029" stop-color="#008ACC" stop-opacity="0"/>
<stop offset="0.625" stop-color="#008ACC" stop-opacity="0"/>
<stop offset="1" stop-color="white"/>
</linearGradient>
<linearGradient id="paint18_linear_1401_19105" x1="664.29" y1="-69.3036" x2="-1329.76" y2="830.464" gradientUnits="userSpaceOnUse">
<stop stop-color="#008ACC" stop-opacity="0.2"/>
<stop offset="0.141029" stop-color="#008ACC" stop-opacity="0"/>
<stop offset="0.625" stop-color="#008ACC" stop-opacity="0"/>
<stop offset="1" stop-color="white"/>
</linearGradient>
<linearGradient id="paint19_linear_1401_19105" x1="664.29" y1="-69.3036" x2="-1329.76" y2="830.464" gradientUnits="userSpaceOnUse">
<stop stop-color="#008ACC" stop-opacity="0.2"/>
<stop offset="0.141029" stop-color="#008ACC" stop-opacity="0"/>
<stop offset="0.625" stop-color="#008ACC" stop-opacity="0"/>
<stop offset="1" stop-color="white"/>
</linearGradient>
<linearGradient id="paint20_linear_1401_19105" x1="664.29" y1="-69.3035" x2="-1329.76" y2="830.464" gradientUnits="userSpaceOnUse">
<stop stop-color="#008ACC" stop-opacity="0.2"/>
<stop offset="0.141029" stop-color="#008ACC" stop-opacity="0"/>
<stop offset="0.625" stop-color="#008ACC" stop-opacity="0"/>
<stop offset="1" stop-color="white"/>
</linearGradient>
<linearGradient id="paint21_linear_1401_19105" x1="664.29" y1="-69.3035" x2="-1329.76" y2="830.464" gradientUnits="userSpaceOnUse">
<stop stop-color="#008ACC" stop-opacity="0.2"/>
<stop offset="0.141029" stop-color="#008ACC" stop-opacity="0"/>
<stop offset="0.625" stop-color="#008ACC" stop-opacity="0"/>
<stop offset="1" stop-color="white"/>
</linearGradient>
<linearGradient id="paint22_linear_1401_19105" x1="664.29" y1="-69.3035" x2="-1329.76" y2="830.464" gradientUnits="userSpaceOnUse">
<stop stop-color="#008ACC" stop-opacity="0.2"/>
<stop offset="0.141029" stop-color="#008ACC" stop-opacity="0"/>
<stop offset="0.625" stop-color="#008ACC" stop-opacity="0"/>
<stop offset="1" stop-color="white"/>
</linearGradient>
<linearGradient id="paint23_linear_1401_19105" x1="664.29" y1="-69.3035" x2="-1329.76" y2="830.464" gradientUnits="userSpaceOnUse">
<stop stop-color="#008ACC" stop-opacity="0.2"/>
<stop offset="0.141029" stop-color="#008ACC" stop-opacity="0"/>
<stop offset="0.625" stop-color="#008ACC" stop-opacity="0"/>
<stop offset="1" stop-color="white"/>
</linearGradient>
<clipPath id="clip0_1401_19105">
<rect width="781" height="484" fill="white"/>
</clipPath>
</defs>
</svg>
