<svg width="33" height="33" viewBox="0 0 33 33" fill="none" xmlns="http://www.w3.org/2000/svg">
<path fill-rule="evenodd" clip-rule="evenodd" d="M4.76807 13.0841C4.76807 8.06708 8.83514 4 13.8521 4C18.8691 4 22.9362 8.06708 22.9362 13.0841C22.9362 18.1011 18.8691 22.1681 13.8521 22.1681C8.83514 22.1681 4.76807 18.1011 4.76807 13.0841ZM13.8521 0C6.626 0 0.768066 5.85794 0.768066 13.0841C0.768066 20.3102 6.626 26.1681 13.8521 26.1681C16.3652 26.1681 18.7128 25.4596 20.706 24.2315L29.3535 32.879L32.1819 30.0506L23.7606 21.6293C25.7395 19.3368 26.9362 16.3502 26.9362 13.0841C26.9362 5.85794 21.0783 0 13.8521 0Z" fill="#004377"/>
</svg>
